<svg xmlns="http://www.w3.org/2000/svg" viewBox="0 0 819.64 158.68"><defs><style>.cls-1{fill:#1877f2;}</style></defs><g id="Capa_2" data-name="Capa 2"><g id="Layer_1" data-name="Layer 1"><path class="cls-1" d="M64.13,24.85c-9.65,0-12.44,4.28-12.44,13.72V54.23H77.43l-2.58,25.3H51.7v76.78H20.81V79.53H0V54.23H20.81V39c0-25.52,10.29-39,39-39a146.27,146.27,0,0,1,18,1.07V24.88Z"/><path class="cls-1" d="M79.57,102.05c0-28.52,13.51-50,41.82-50,15.44,0,24.87,7.94,29.38,17.8V54.23h29.59V156.31H150.77V140.87c-4.29,9.87-13.94,17.59-29.38,17.59-28.31,0-41.82-21.45-41.82-50Zm30.88,6.87c0,15.22,5.57,25.3,19.94,25.3,12.66,0,19.09-9.22,19.09-23.8V100.17c0-14.58-6.43-23.8-19.09-23.8-14.37,0-19.94,10.08-19.94,25.3Z"/><path class="cls-1" d="M244.7,52.08c12,0,23.37,2.58,29.59,6.86l-6.86,21.88a48.71,48.71,0,0,0-20.59-4.72c-16.73,0-24,9.65-24,26.17v6c0,16.52,7.29,26.17,24,26.17a48.56,48.56,0,0,0,20.59-4.72l6.86,21.87c-6.22,4.29-17.58,6.87-29.59,6.87-36.25,0-52.76-19.52-52.76-50.83v-4.72C191.94,71.6,208.45,52.08,244.7,52.08Z"/><path class="cls-1" d="M278.36,109.17v-9c0-28.95,16.51-48,50.19-48,31.74,0,45.68,19.3,45.68,47.61v16.3h-65c.65,13.94,6.87,20.16,24,20.16,11.59,0,23.81-2.36,32.82-6.22l5.65,21.15c-8.15,4.3-24.88,7.51-39.67,7.51C292.94,158.67,278.36,139.17,278.36,109.17Zm30.88-13.3h37.32V93.3c0-11.15-4.5-20-18-20-13.95,0-19.32,8.81-19.32,22.53Z"/><path class="cls-1" d="M488.7,108.49c0,28.52-13.72,50-42,50-15.44,0-26.16-7.72-30.45-17.59v15.44H387.09V3L418,.17v68.2c4.5-9,14.37-16.3,28.74-16.3,28.31,0,42,21.45,42,50Zm-30.88-7.08c0-14.37-5.57-25.09-20.37-25.09-12.66,0-19.52,9-19.52,23.59v10.72c0,14.58,6.86,23.59,19.52,23.59,14.8,0,20.37-10.72,20.37-25.09Z"/><path class="cls-1" d="M499,107.84V102.7c0-29.39,16.73-50.62,50.83-50.62S600.7,73.31,600.7,102.7v5.14c0,29.38-16.73,50.62-50.83,50.62S499,137.22,499,107.84Zm70.78-7.29c0-13.51-5.58-24.23-20-24.23S529.86,87,529.86,100.55V110c0,13.51,5.58,24.23,19.95,24.23s20-10.72,20-24.23Z"/><path class="cls-1" d="M611,107.84V102.7c0-29.39,16.73-50.62,50.83-50.62s50.83,21.23,50.83,50.62v5.14c0,29.38-16.73,50.62-50.83,50.62S611,137.22,611,107.84Zm70.78-7.29c0-13.51-5.58-24.23-20-24.23S641.86,87,641.86,100.55V110c0,13.51,5.57,24.23,19.94,24.23s20-10.72,20-24.23Z"/><path class="cls-1" d="M755.09,102.91l30.45-48.68h32.81l-32,50.4,33.24,51.68H786.83l-31.74-50v50H724.2V3L755.09.17Z"/></g></g></svg>