<svg xmlns="http://www.w3.org/2000/svg" viewBox="0 0 1919 1492"><defs><style>.cls-1{fill:#fefefe;}.cls-2{fill:#f6f9fc;}.cls-3{fill:#4d5fa9;}.cls-4{fill:#ecf3fb;}.cls-5{fill:#393939;}.cls-6{fill:#f26a51;}.cls-7{fill:#2c2c2c;}.cls-8{fill:#4258a7;}.cls-9{fill:#63c5ef;}.cls-10{fill:#e1e9f6;}.cls-11{fill:#f7c3c3;}.cls-12{fill:#35b4b3;}.cls-13{fill:#f05840;}.cls-14{fill:#fcc769;}.cls-15{fill:#5a1f1f;}.cls-16{fill:#fcba4a;}</style></defs><g id="Capa_2" data-name="Capa 2"><g id="Capa_1-2" data-name="Capa 1"><path class="cls-1" d="M959.5.09q477.45,0,954.91-.09c3.74,0,4.59.84,4.59,4.59q-.15,741.41,0,1482.82c0,3.74-.84,4.59-4.59,4.59q-954.92-.15-1909.82,0c-3.74,0-4.59-.84-4.59-4.59Q.15,746,0,4.59C0,.84.84,0,4.59,0Q482,.15,959.5.09ZM1630,1253.86c-4.78-1-9.68-1.6-14.3-3.09-3.17-1-7.11.55-9.56-2.78-.6-2.61,1-5.65-3.29-7.22-70-25.7-139.14-54.16-212.08-71.85.58-1.11,1.38-2.72,2.24-4.3,12.39-22.65,24.13-45.61,33.94-69.51q26.55-4.18,53.1-8.38c10.88-1.74,16.29-9.48,14.59-20.33-1.65-10.48-3.83-20.88-4.69-31.48,7.55-1.21,15.1-2.38,22.64-3.65,12.08-2,17.06-8.61,15.27-20.58-2.36-15.77-5-31.5-7.46-47.26-2.55-16.41-5-32.83-7.54-49.25-.1-.37-.19-.74-.28-1.12-.18-.7-.35-1.41-.53-2.11,1.53-1.68,3.49-3.25,4.55-5,2.3-3.85,8-3.26,9.38-7.87a418.09,418.09,0,0,0,48.76-42.47c12.46-12.71,24-26.15,32.68-41.82,9.83-17.72,8.68-29.68-4.38-44.58-11.1-12.66-24.08-23.26-37.55-33.23-20.15-14.9-41.19-28.48-62.69-41.34-9.1-5.45-18.11-11.08-27.69-15.7A19.78,19.78,0,0,0,1464,669c-5.53-.54-6.68-3.62-5-8.46a8,8,0,0,0,0-2.49c0-17.56-.24-35-2.69-52.55-2.16-15.43-6-30.4-9.32-45.51-1.9-8.66-4.84-17.12-7.78-25.51a478.73,478.73,0,0,0-22.3-54.17A549.07,549.07,0,0,0,1377.93,414c-1-1.49-2.33-2.89-2-4.94,1.91-3.74,3.62-7.54.47-11.43s-7-4.66-11.47-2.57c-1.74,0-2.8-1.41-3.43-2.52a63.62,63.62,0,0,0-9.91-12.78c-4.18-4.25-6.66-10.24-12.61-12.71-.23-4.53-3.71-6.2-7-8-1.39-3.84-4.29-6.62-7-9.42-7.87-8.09-16-15.87-24.32-23.56q-12.75-11.87-26.24-22.81c-4.52-3.68-8.38-8.59-14.44-10.18-2.13.05-2.24-2.56-4-3-.1-2.24-2.18-2.89-3.51-3.87-10.77-7.9-21.46-15.93-32.93-22.8-1.8-1.08-2.75-2.26-2.55-4.33,4.13-2.74,6.41-6.35,4.24-11.27-1.73-3.91-4.8-6.35-9.41-5.51-5.07.93-7.43,4-7.83,9.78-6-1.56-10.85-5.43-16.27-8.15-13.74-6.9-27-14.58-41.08-21-16.42-7.49-33.05-14.4-49.8-21.08-20-8-40.54-14.08-61.08-20.26-6.18-1.86-12.31-4.22-18.61-5.3-10.28-1.77-20.4-4.22-30.5-6.65-16.1-3.88-32.4-6.8-48.7-9.27-17.62-2.66-35.38-4.69-53.14-6.61-24.26-2.64-48.56-3.66-72.88-4.58-10.94-.42-21.93.43-32.87.63-18.79.34-37.55,2-56.36,1.27a14.8,14.8,0,0,0-2,.07,211.33,211.33,0,0,1-56.57-1.4c-19.26-2.95-38.41-6.83-57.43-11.06-22.88-5.08-46-4.71-68.85-2.28-21.21,2.24-42.06,7.38-62.41,14a283.3,283.3,0,0,0-72.33,36,296.34,296.34,0,0,0-47.93,40.73,307.1,307.1,0,0,0-54.26,77.52c-4.52,9.28-8.89,18.63-12.48,28.21a311.87,311.87,0,0,0-14.07,50.15c-3,15.51-3.91,31.19-5.11,46.82-1,13.38.54,26.81,1.58,40.24a366.24,366.24,0,0,0,7.14,47c3.68,17.53,9.13,34.54,14.65,51.59,6.87,21.2,15.63,41.57,24.86,61.74,11.88,26,26.75,50.42,40.4,75.49,2.66,16.51,5.36,33,8,49.54,1.49,9.48,2.84,19,4.26,28.48-2.88,5.42-1.66,11.06-1.11,16.74.64,6.59,1.58,7.56,8.25,6.6a5.45,5.45,0,0,1,2.82.62c0,2.83.44,5.78-.2,8.46-3.67,15.29-.92,30.3,1.63,45.33,1,5.92,4.74,10,8.64,14.47,4.16,4.78,11.12,6.74,13.22,13.38a1.55,1.55,0,0,0,1.15.88c4.3.18,5.78,3,6.66,6.65a3,3,0,0,0,2.59,2.7c1.95.18,2.54-1.33,3.17-2.66a20.32,20.32,0,0,0,2-10.14c-.84-11.88,1.79-23.4,3.21-35a2,2,0,0,1,1.78-2c3.13,41.41,11.37,82,20.52,122.38,7.6,33.54,16.24,66.9,17.11,101.61.79,31.6,2,63.19,3.06,94.77-4.35-1.62-8.65-3.41-13.06-4.85-20.49-6.66-41.87-9-62.95-12.77a9.81,9.81,0,0,0-8.36,2.38c-3.82,3.25-4.89,7.63-5.3,12.44-1.24,14.61-.75,29.26-1.17,43.89-2.07,2-4.23-.1-6.34.14-.28-25-.7-50-.8-75-.06-16.1,3.49-19.18,19.32-17.78,14.59,1.3,27.57-2.77,39.27-11.47,5.56-4.14,9.47-9.79,14.16-14.72,3.46-3.63,7.39-6.29,12.65-5.92,6.09.42,6.27.2,4.33-5.76a18.7,18.7,0,0,0-5-7.91c-8.47-8-18.69-9.12-29.35-6.45-17.07,4.28-31.62,13.67-45.91,23.55-10.14,7-14.72,16.48-15.12,28.73-1,30.83.44,61.63.65,92.44l-5.85.24c0-2.5,0-5-.06-7.5-1.2-44.45-2.27-88.9-3.75-133.34-.21-6.29,1.67-10,6.94-13.3,22.6-14.2,38.06-33.81,44.64-60.08,2.73-10.88,6.8-13.08,17.91-10.08,3.85,1,4-.58,3.49-3.31-2.18-11-8.38-19.5-17.57-25.62-4.59-3.06-8.58-1.78-11.4,3-2.53,4.26-6.18,7.33-9.93,10.37-15.85,12.85-29.23,27.58-36.35,47.21-.79,2.17-.66,4.83-2.79,6.81a5,5,0,0,1-.68-1.41c-1.7-18.73-3.95-37.4-6.19-56.07-2.14-17.92-6.1-35.08-17.64-49.58-2.43-3.06-2.65-5.92-1.34-9.62a33.37,33.37,0,0,0,1.62-10.8c0-9.95-6.61-15-15.89-11.51-12,4.46-23.83,9.37-35.44,14.72-9.24,4.26-11.63,10.91-8.15,20.63,3.64,10.17,7.55,20.24,11.54,30.28,1.26,3.19,2.6,6.88,6.72,7.31,4.34.45,5.67-3.4,7.63-6.2.38-.55.64-1.17,1-1.74a79.35,79.35,0,0,0,10-30.6c.42-3.57,2-7.14,6-6.55s8,1.66,10.78,5.38c10.26,13.87,15.47,29.4,17.44,46.52q4.59,39.68,8.32,79.44c3.18,34.5,5.63,69,6.43,103.66q.72,31,1.41,61.94l-2.13-.06c-.25-2.32-.44-4.65-.75-7-4.62-34.58-13.1-68.7-12.32-104,.14-6.38,0-12.42,2.91-18.39,3.36-6.81,1.76-9.63-5.45-11.69a15.7,15.7,0,0,0-3.4-.75c-2.21-.14-3.06-1.15-3.43-3.37-1.87-11.49-4-23-5.92-34.44-2.24-13.52-6.86-25.24-20.53-31.48-10.76-4.91-21.65-9.45-33-12.62-11.18-3.12-22.44-4.9-33.78-.27-9.94,4.05-17.44,15.34-13.66,24.44a12.45,12.45,0,0,1,11.31-1.92c4.21,1.33,7.6,4,10.87,6.91,9.73,8.65,20.91,13.86,34.08,14.91,8.5.68,16.51-1.17,24.63-3,7.77-1.8,12.17.82,14.55,8.22,2.62,8.12,3.12,16.65,4.77,25,1.1,5.59,1.09,5.58-4.2,4.1-2.08-.59-4.2-1-6.27-1.67-16.14-4.92-31.25-12.21-46.19-20-10.26-5.33-20-3.84-28.61,3.75-5.56,4.89-9.73,10.87-13.58,17.12-1.87,3-4,6.33-1.7,9.69s6.07,1.63,9.23,1c9.83-1.93,18.42-.49,25.19,7.8a58.36,58.36,0,0,0,21.63,16.56c15.91,7.07,32.11,11.37,48.84,2.28,3.07-1.66,2.32,1,2.54,2.32a303.22,303.22,0,0,1,4.77,42.11c.79,21.67,6.18,42.79,8.75,64.26l-12,.16c-1.91-6-3.84-12-5.72-18-5.22-16.65-11.23-32.86-26.42-43.38-4.31-3-6.69-6.4-5.92-11.92.33-2.37-.47-5-1-7.39-2.46-11.67-10.49-15.11-20.08-8.07-9.77,7.18-19.23,14.81-28.48,22.65-7.9,6.69-8.83,13.58-3,22,6.55,9.41,13.61,18.47,20.6,27.56,1.8,2.34,4.09,4.94,7.4,4.29,3.51-.7,4.57-4,5.42-7.11,3.11-11.37,4.59-22.83,2.14-34.54-.79-3.75-.34-7.64,3.76-8.56,3.2-.72,7.8-.77,10.1,1,8.19,6.4,17,12.64,21.63,22.35,6,12.46,9.81,25.75,13.83,39-5.43.6-10.84,1.51-16.33,1.12-4.61-.32-6.81,1.9-7.87,6.38-2.2,9.27-1.68,18.74-2.49,28.11-1.14,13.26,1.8,26.34,2.91,39.5-3.45,3.06-8,2.89-12.08,3.91-12.22,3.08-24.44,6.11-35.4,12.56-3.33,2-7.27,4.46-7.35,8.78-.1,4.71,3.54,7.35,7.44,9.76,10.94,6.75,23.27,9.28,35.38,12.63,18.71,5.17,37.9,7.85,56.94,11.18,17.07,3,34.47,4,51.65,6.43,17.53,2.45,35.16,3.83,52.74,5.71,13.82,1.47,27.73,2.08,41.59,3.15,16.5,1.27,33,2.53,49.48,4,10.57.92,21.17,1,31.75,1.81q27.5,2.23,55.1,3c16.26.49,32.49,1.3,48.73,1.94,19.07.76,38.16,1.1,57.23,2.11,13.44.72,26.89-.32,40.38.88s26.87.14,40.35,1c21.41,1.32,42.91.72,64.35.88,52.1.38,104.22,1.32,156.33-.53,24.09-.85,48.24.13,72.35-1.12,10.61-.55,21.25-.36,31.87-.74,24.73-.87,49.49-1.15,74.22-2.21,14.09-.61,28.18-1.63,42.24-1.84,23.25-.34,46.41-1.93,69.59-3.37,8.63-.54,17.29-.21,25.86-1q27.47-2.54,55-4c9.08-.47,18.15-1.47,27.22-2.2,15.32-1.23,30.58-3.16,45.87-4.67,8.56-.85,17.19-1.13,25.72-2.22,15.89-2,31.69-4.78,47.59-6.7,16.93-2,33.6-5.44,50.27-8.9,10.35-2.15,20.58-4.93,30.86-7.43a6.45,6.45,0,0,0,.62.21c1.11,4.55-.39,8.38-3.17,11.93a79.75,79.75,0,0,0-5.53,7.58c-4.14,6.79-.87,14.5,6.61,16,1.86,3.55,4.46,7.44,8.69,5,7.67-4.51,15.23-9.66,17.46-19.28,1.86-8,3.57-16.11,5.39-24.16,4.24-18.66,9.15-37.17,12.51-56,1.21-6.78-.42-8.66-7.69-9-4.94-5.32-11.36-7-18.29-7.34A38.8,38.8,0,0,0,1630,1253.86Zm7.49-69.91c16.49,0,33-.08,49.48,0,14.42.08,15.64-4.87,15.72-14.65.19-22.28,1.41-44.6-.7-66.86-.73-7.7-4.82-11.45-12.69-11.48-9.16,0-18.33-.22-27.49.08-4.42.15-6.22-.88-6-5.72.43-7.81.13-15.66.11-23.49,0-6.43-2.55-8.74-9.11-8.93-10.3-.3-20.6-.38-30.88-.68-27.31-.79-54.65-.33-82-.22-6.41,0-10,3.56-10,10q-.16,39.49,0,79c0,6.66,3.75,9.94,10.45,10,11.5,0,23,.09,34.49,0,3,0,4.15,1,4,4-.18,5.32,0,10.66,0,16,0,9.11,3.88,13,13,13Q1611.72,1184,1637.47,1184ZM1510.92,533.1c-1.87-.12-3.26.92-4.39,2.51-6,8.55-12,17.16-18.23,25.59-2.75,3.74-1.8,6.44,1.53,8.86,8.21,6,16.52,11.76,24.66,17.81,4,3,6.84,2.25,9.59-1.68,5.71-8.17,11.65-16.18,17.39-24.34,3.28-4.65,2.84-6.39-1.92-9.81q-11.55-8.29-23.06-16.62C1514.86,534.25,1513.26,533,1510.92,533.1ZM1448.58,377c4.05-.1,8.32-4.44,8.35-8.47a9.3,9.3,0,0,0-9-9.43,9.13,9.13,0,0,0-8.83,9.52C1439.22,373.2,1443.67,377.15,1448.58,377Zm-30.66-9.31c0-3.82-4.38-8.36-8.3-8.51a9.16,9.16,0,0,0-9.64,9.23c0,4,4.14,8.4,8.21,8.59C1413.1,377.24,1417.87,372.68,1417.92,367.71ZM1291.47,256.06c-5.52,0-8.48,2.77-8.51,8,0,5.86,3,9,8.75,9,5,.05,8.2-3.17,8.26-8.38C1300,259.24,1296.89,256.06,1291.47,256.06ZM1370.09,377c4.21-.09,9-5.11,8.8-9.2-.19-3.85-5.66-8.73-9.61-8.59-4.16.14-8.37,4.73-8.31,9A9.26,9.26,0,0,0,1370.09,377ZM1448,411.05c5.63,0,8.84-3,9-8.31.09-4.44-4.4-8.74-9.06-8.69-4.45.05-8.8,4.15-8.87,8.38S1443.37,411.05,1448,411.05ZM1339,264.89c.07-5.75-2.91-8.77-8.73-8.83-5-.06-8.19,3.14-8.28,8.29-.09,5.55,3.29,8.78,9.1,8.7C1335.76,273,1338.92,269.73,1339,264.89Zm70.09,146.17c4.38,0,8.84-4.15,8.87-8.19,0-4.57-4.28-8.82-9-8.82a9.22,9.22,0,0,0-9,9.29C1400.13,408,1403.81,411.1,1409.06,411.06ZM1244,160.4c0,4.85,3.89,9.58,8,9.61,4.46,0,9.06-4.8,9-9.46,0-4-4.35-8.5-8.16-8.46C1247.2,152.14,1244,155.15,1244,160.4Zm-31.12,29.68c5.41,0,8.93-3.14,9.1-8.27.15-4.15-4.18-8.67-8.36-8.73-5-.07-9.68,4.19-9.57,8.72C1204.11,185.92,1208.5,190,1212.84,190.08ZM1300,229.77c0-4.49-4.26-8.69-8.93-8.69-4.43,0-7.63,4-8.2,8.77-.55,4.63,4.38,8.93,9.13,9.11C1295.91,239.11,1299.92,234.33,1300,229.77Zm-47.72,43.29c5.72-.07,8.82-3.3,8.71-9.07-.09-5-3.7-8.05-9.33-7.93-4.85.1-7.71,3.18-7.67,8.24C1244,269.92,1247,273.12,1252.25,273.06ZM1244,229.84c0,4.37,4,9,7.91,9.16,4.53.14,9-4.42,9.09-9.24.07-4.08-3.93-8.54-7.78-8.68A8.93,8.93,0,0,0,1244,229.84Zm125.79,112.22c5.09,0,8.14-2.84,8.22-7.78.1-5.78-2.83-9.2-7.92-9.23-4.89,0-9.06,3.86-9.08,8.48C1360.93,338.9,1364.13,342,1369.75,342.06ZM1339,334.22c.07-5.72-2.86-9-8.13-9.17-5.09-.13-8.84,3.25-8.87,8,0,5.44,3,8.92,7.7,9C1335.47,342.17,1338.91,339.28,1339,334.22Zm39-34.36c0-5.45-3.41-9.64-8-9.74s-9.13,4.22-9.06,8.69a9.26,9.26,0,0,0,8.73,9.18C1373.91,308.14,1378,304.17,1378,299.86Zm-39-.36c0-4.79-3.93-9.27-8.28-9.41s-8.8,4.43-8.72,9.13c.07,4.47,4.3,8.83,8.54,8.81S1339,303.65,1339,299.5Zm-39,.18c-.06-5.28-3.91-9.46-8.82-9.56-3.77-.07-8.18,4.47-8.19,8.46,0,4.87,4,9.37,8.39,9.45C1295.49,308.1,1300,303.73,1300,299.68Zm-48.13-112.62c-5.1.05-8,3.41-7.88,9.21.08,4.93,3.12,7.84,8.15,7.8,4.59,0,9-4.43,8.84-8.81C1260.74,189.9,1257.53,187,1251.84,187.06Zm156.92,155c4.21.22,8.84-3.82,9.15-8s-4-8.7-8.29-9a9.27,9.27,0,0,0-9.65,8.64C1399.84,337.83,1404,341.81,1408.76,342.06Zm78.5,69c5.46,0,8.66-3.06,8.69-8.4,0-4.5-4.32-8.63-9-8.61s-7.89,3.32-8,8.25C1478.84,407.75,1482,411,1487.26,411.06Zm-274.07-203c-4.52-1.06-8.77,4.06-9,8.51s4.19,8.42,8.7,8.48,9.19-4.26,9.09-8.65C1221.85,212.22,1217.52,208.11,1213.19,208.06Z"/><path class="cls-2" d="M357.88,706c-13.65-25.07-28.52-49.52-40.4-75.49-9.23-20.17-18-40.54-24.86-61.74-5.52-17-11-34.06-14.65-51.59a366.24,366.24,0,0,1-7.14-47c-1-13.43-2.61-26.86-1.58-40.24,1.2-15.63,2.09-31.31,5.11-46.82a311.87,311.87,0,0,1,14.07-50.15c3.59-9.58,8-18.93,12.48-28.21a307.1,307.1,0,0,1,54.26-77.52,296.34,296.34,0,0,1,47.93-40.73,283.3,283.3,0,0,1,72.33-36c20.35-6.65,41.2-11.79,62.41-14,22.9-2.43,46-2.8,68.85,2.28,19,4.23,38.17,8.11,57.43,11.06a211.33,211.33,0,0,0,56.57,1.4,14.8,14.8,0,0,1,2-.07c18.81.71,37.57-.93,56.36-1.27,10.94-.2,21.93-1.05,32.87-.63,24.32.92,48.62,1.94,72.88,4.58,17.76,1.92,35.52,4,53.14,6.61,16.3,2.47,32.6,5.39,48.7,9.27,10.1,2.43,20.22,4.88,30.5,6.65,6.3,1.08,12.43,3.44,18.61,5.3,20.54,6.18,41.11,12.3,61.08,20.26,16.75,6.68,33.38,13.59,49.8,21.08,14,6.4,27.34,14.08,41.08,21,5.42,2.72,10.27,6.59,16.27,8.15,1.56,7.48,7.17,7.44,13,7-.2,2.07.75,3.25,2.55,4.33,11.47,6.87,22.16,14.9,32.93,22.8,1.33,1,3.41,1.63,3.51,3.87-4.25-.47-7.87.62-10.62,4.11-2.9,3.67-2.72,7.53.6,10.48,5.06,4.49,8.16,4.55,12.1.91,4.09-3.79,2.75-8.11,1.9-12.49,6.06,1.59,9.92,6.5,14.44,10.18q13.47,11,26.24,22.81c8.27,7.69,16.45,15.47,24.32,23.56,2.72,2.8,5.62,5.58,7,9.42-6.48.48-10.18,4.11-10,9.84.13,3.95,4.51,8.14,8.52,8.15,4.94,0,8.33-4,8.53-10,6,2.47,8.43,8.46,12.61,12.71a63.62,63.62,0,0,1,9.91,12.78c.63,1.11,1.69,2.5,3.43,2.52-1,2.37-4,3.38-4,6.52,0,3.54.65,6.68,4,8.38,3.76,1.91,7.57,1.85,11.06-.9-.36,2,1,3.45,2,4.94a549.07,549.07,0,0,1,38.93,66.34,478.73,478.73,0,0,1,22.3,54.17c2.94,8.39,5.88,16.85,7.78,25.51,3.32,15.11,7.16,30.08,9.32,45.51,2.45,17.53,2.68,35,2.69,52.55a8,8,0,0,1,0,2.49c-1.64,4.84-.49,7.92,5,8.46-3.09.12-6.22-.49-9.25.57a1,1,0,0,0-1.52.22l-4.27,0c-3.08-2.7-7-1.74-10.53-2.24-11.66-1.66-23.29-3.8-35.16-3.38a58.56,58.56,0,0,1-1.35-14.15c0-.33,0-.66.05-1,.63-7.59-3.2-16.31,5.59-21.87.44-.28.27-1.53.37-2.33,3.85-5.25,8.78-9.64,12.1-15.31l0,.06a.4.4,0,0,1,.31-.55l.68-.94,0-.09c3.84.12,2.69-2.8,3-4.86l.74-1.25c1.3-.44,1.24-1.56,1.32-2.61l.09-.24c2.31-.35,3-1.88,2.83-4-1.13-2.34,1.43-3.47,1.74-5.22,1.93-10.87,4.32-21.75,1.21-32.81a2,2,0,0,0-1.08-2,2.16,2.16,0,0,1-.92-2l-.58-1c-2-2.57-3.49-5.63-6.76-6.85-2.37-.89-1.12-2.26-.67-3.58a18.76,18.76,0,0,0-.06-13.46c.39-3.6-1.09-5.75-4.79-6.19l-1.13-1-1.16-.93a62.24,62.24,0,0,0-18.83-8.21c-.82-4.95-3.61-3-6.19-1.77L1375,507.07c-2.45-2.05-5.34-.67-8-1l-5-.33c-2.19-4.79-6.1-.52-9-1.69h0c-.23-2.5-2.23-1.83-3.71-2.09l-.24-.11-1.19-.73L1336,495.8c-4.94-4.46-16.21-5.76-24-2.76-1,0-2.12-.21-3,.18-9.55,4.53-17.64,10.43-19.46,21.86a11.29,11.29,0,0,0-.21,7.81l.56,3.31c.52,2-1.33,4.8,2,5.81a.37.37,0,0,1,.23.55c-.13,2.41-.38,4.9,3,5.25l-.2.19.22-.16c-.73,3.95,2.4,4.77,4.94,6.07,4.33,3.77,8.43,7.85,13.84,10.14.53,2.89,2.32,5.37,1.86,8.62-2.82,20-3.54,39.77,1.78,59.6,4.1,15.31,11.91,23,27.7,24.76,1.84.21,3.77.68,3.39,2.7-1,5.09-.2,10.22-.83,15.29-6.53,1-13.06,2-19.57,3.06-9.62,1.59-18.8,4.92-27.9,8.16-11.17,4-19.06,12.65-26.3,21.76L1189,711.36a27.93,27.93,0,0,1-2.22-2.66,100.42,100.42,0,0,0-36.63-33.81,96.61,96.61,0,0,0-48-12.18c-13,.18-26.19,2-38.56,7.44a119.35,119.35,0,0,0-35.7,23.8c-2.87,2.79-4.67,6.36-7,9.57a132.16,132.16,0,0,0-11,18.59c-3,6.1-4.15,12.83-7,19-6.23,1-12.46,2-18.69,3C967,747,954.88,760.91,954.78,778c0,7.18,1.55,14.14,3.2,21.07.55,8.5,3.39,16.57,4.76,24.89,5.72,34.82,11,69.7,16.52,104.56q14.91,94.2,29.85,188.39c4.1,26,23.21,40.79,48.18,36.81,13.32-2.12,26.59-4.5,40-6.35,6.68-.93,13.25-3.29,20.16-2.24q5.41,16.39,10.81,32.77c-6.72,3-14,2.75-21,2.85-15.1.22-30.2.44-45.34-.54-18-1.15-35.91-3-53.79-5.2a632.92,632.92,0,0,1-62.38-11.15c-14.67-3.32-29.23-7.13-43.7-11.27-7.6-2.18-15.13-4.53-22.64-7-12.56-4.09-25-8.48-37.58-12.62-1.66-.55-2.63-1.27-2.75-3l77.94,0c7,0,7,0,7.06-7.27,0-8.16.21-16.33-.09-24.48-.15-4.15,1.13-5.39,5.3-5.34,18.49.21,37,.1,55.46.09,6.29,0,6.3,0,6.31-6.51,0-9.66-.24-19.33.1-29,.17-5-1.25-6.68-6.43-6.61-18.64.29-37.3,0-55.95.2-3.78,0-4.91-1.15-4.78-4.85q.38-11.23,0-22.48c-.13-3.7,1-4.9,4.78-4.86,6.46.06,13,.81,19.4-.52,1.38-.28,3.84.19,3.7-2.35-.16-2.92-2.64-2-4.25-2q-77.68-.07-155.39-.1c-3.9,0-5.31,1.31-5.22,5.23.2,8.82-.1,17.65.14,26.47.11,4.22-1.47,5.48-5.55,5.43-15-.18-30-.07-45-.07H705.1c-1.71,0-3.66,0-3.82,2.25-.18,2.59,1.9,2.72,3.81,2.73,3.67,0,7.34.16,11,0,3.11-.17,4.12,1.07,4,4.07-.19,4.32-.06,8.66-.07,13a6.84,6.84,0,0,1-4.25-1.15c-9.55-5.88-19-11.93-28.65-17.66-5.08-3-9.38-7.32-15.14-9.2a207.5,207.5,0,0,0-3.88-23.57c-13.64-57.26-25.81-114.87-40-172C622.65,827.44,616,805.83,610.18,784c2.16,0,5.16-.17,3.26-3.21-1.69-2.68-1.09-5.23-1.44-7.85l.15-9.78c1.14-2.71.73-5.58.8-8.38.42-18.78-.72-37.58-.46-56.34.37-27.24,2.17-54.45,3.31-81.68.69-16.74,11.53-29.9,26.86-34.09,13-3.57,26.65-5.37,40.21-6.73,6.28.21,12.64.89,18.06-3.44l2.13-.24c.36.45.67.38.94-.09,16-2.79,32.07-5.72,48.14-8.32,10-1.62,19.12-4.29,27.53-10.91,15.65-12.32,32.28-23.39,48.58-34.88,7.7-5.42,15.36-10.91,23.25-16.08,9.2-6,17.74-13,26.63-19.51,5.34-3.89,10.81-7.6,16.22-11.38,5.44,2.26,9.37-.38,13.06-3.94a25.23,25.23,0,0,1,3.77-3.17c3.19-2.05,3.28-4.14,1.31-7.4-1.74-2.87-5.83-4.25-5.46-8.42a35.75,35.75,0,0,1,18.88-8.23,34.18,34.18,0,0,0,9.39-2.77c4.85-2.05,9.31-5.13,14.62-6.08,10,11.13,20.8,21.18,34.19,28.45a117.21,117.21,0,0,0,22.45,9.26c14.45,4.33,29.58,3.67,44.57,3.22a46.81,46.81,0,0,0,12.39-2.09,179.57,179.57,0,0,0,22.07-8.2c6.74-3.2,13.77-6.4,19.45-11.09,7-5.81,12.65-13.26,19.12-19.77a55.32,55.32,0,0,0,10.66-14.58c6.45-13.44,12.21-27.11,13.52-42.52,1.86-22-1.27-42.73-10.54-62.7a94.76,94.76,0,0,0-15.34-23.62c-9.14-10.11-19.11-19.81-32.1-25.43-5.62-2.44-10.74-6.48-16.55-7.92a219.74,219.74,0,0,0-25.62-5.05,102.72,102.72,0,0,0-33.21,1.71,118.42,118.42,0,0,0-52.32,25.39c-2.34,1.95-5.11,3.65-6.79,6.08-6.53,9.4-14.49,17.78-19.4,28.39a137.94,137.94,0,0,0-8.27,23.73c-3.52,13.66-3.29,27.64-2,41.6-.07,1.93-1.08,3.33-2.32,4.76-4.29,4.95-9.33,9.05-12.65,15.09-5.54,10.08-11.73,20-22,26.28-.62.38-.93,1.27-1.38,1.93-3.26.22-4.49-2.26-6.06-4.41-1.15-1.57-2.43-4-4.54-3.27-4.51,1.64-8.43,4.55-12.26,7.44-2.48,1.88-.56,4.69-1,7-2.93,1.74-5.82,3.56-8.81,5.2-8.76,4.79-17.58,9.45-26.33,14.25-11.56,6.35-23,12.85-34.63,19.14-12.9,7-25.88,13.85-38.82,20.77-1.52-.12-3.1-.37-3.31,1.84l0,0c-5.18-1-7.87,2.71-11,5.68-22.29,2.72-44.56,5.61-66.88,8.07-8.82,1-17.6,2.6-26.57-1C633.24,499,618.53,494.22,604,489c-10.11-3.63-20.56-6.06-31-8.54-2.36-.56-6.24-2.58-6.75,2.73-1,10.57-5.64,19.73-11.54,28.31-7.52,10.92-7.86,11-19.09,4-2.13-1.33-3.41-1.13-5.21.31a57.89,57.89,0,0,1-11.09,6.6c-3.32,1.62-5.21,1.08-7.55-1.69-9.75-11.54-16.72-24.35-19-39.43-.49-3.3-1.51-4.32-5.15-3.67-20.82,3.72-41.06,9.21-60,18.83A82.13,82.13,0,0,0,404.11,515c-7.76,8.62-13.68,18.79-19.1,29.09-6.11,11.62-13.24,22.73-17.83,35.13-3.08,8.32-6.74,16.39-9.71,24.79-8.07,22.84-10.53,45.72-4.59,69.54C355.52,684.1,356.27,695.16,357.88,706ZM738,222.05c.22-1.7-.81-2.57-2-3.66-12.45-11.49-26.76-17.25-44-16.52a60.31,60.31,0,0,0-31.1,9.72c-11,7.12-18.56,17.15-23.66,29.15-3.52,8.29-4.12,17.24-3.62,25.81a58.28,58.28,0,0,0,16.51,37.82,4.74,4.74,0,0,0,3.88,1.7c3.71,6.07,7.52,12.19,12.71,17,14.45,13.42,31.42,19.6,51.38,17.09,23.36-2.94,39.67-16,49.26-36.47s6.91-41.14-5.45-60.16C755.92,234.31,747.08,228,738,222.05Zm-228,222c-.58,1.4-1.81,2.83.21,4.09-1.12,6.78-2.32,13.54-4.76,20a6.83,6.83,0,0,0-.59,3.81c2.63,15.58,11.05,27.44,23.35,36.9,2.13,1.63,3.82,1.28,5.81-.22C548.3,498,556.66,484.07,557,466.05c.08-5,1.79-6.33,6.45-6a20.68,20.68,0,0,0,15.49-5.53c10.29-9.38,13.8-22.09,16-35.12a266.15,266.15,0,0,0,2.9-28.63c.5-8.74.21-17.53.27-26.3,1-.58,1.88-1.24,2.88-1.74,7.6-3.85,10-8.86,8.22-17.32-2.79-13.3-10.72-22-23.89-25.21a118.92,118.92,0,0,0-73,4.91c-6.39,2.49-9.79,7.22-11.5,13.53-1.49,5.47-3.08,11-6.18,15.74-9.26,14.16-9.46,29.47-6,45.2C492.22,416,500.34,430.45,510,444.06ZM497.16,255a4.39,4.39,0,0,0,4.28-2c6.35-8.9,12.61-17.87,19.07-26.68,2.57-3.5,1.79-6.26-1.3-8.56-8.5-6.31-17-12.63-25.73-18.63-3.37-2.32-7-1.77-9.65,1.74-2.06,2.76-4,5.65-5.91,8.5-4.21,6.15-9.15,11.78-12.77,18.36-1.68,3-1.19,5.4,1.52,7.36q12.87,9.31,25.78,18.57A6.63,6.63,0,0,0,497.16,255ZM863.78,680c12.39,1.15,23.58-10.57,23.05-22.15-.63-13.92-9.25-22.07-22.83-22.63-11.94-.49-22.85,11.3-22.19,22C842.64,671,850.56,680,863.78,680Zm349.55-299.94a9.35,9.35,0,0,0-9.33,9.57c.09,4.38,4.61,8.39,9.45,8.38,4.25,0,8.63-4.52,8.49-8.75C1221.78,384.36,1217.71,380,1213.33,380.07Zm8.62-59.43a9.35,9.35,0,0,0-8.86-9.58,9.24,9.24,0,0,0-9,8.85c-.07,4.53,4.72,9.15,9.45,9.12C1217.53,329,1221.87,324.7,1222,320.64Zm-8.53-43.59c-5.36-1-9.06,4.59-9.34,8.88-.25,3.78,4.44,8,8.66,8.12,4.46.12,9-3.88,9.2-8.15C1222.23,280.58,1218.94,277.17,1213.42,277.05Zm117,134c5.62,0,8.57-3.09,8.56-9a7.7,7.7,0,0,0-8-8c-5.73,0-8.91,3.16-9,8.89C1321.93,407.84,1325.26,411,1330.41,411.05ZM1244,402.31c0,5.58,2.64,8.64,7.67,8.74,5.94.11,9.29-2.9,9.33-8.39a8.9,8.9,0,0,0-8.86-8.62C1246.87,394,1244,396.92,1244,402.31Zm56-34.49c-.06-4.37-4.2-8.8-8.44-8.59-4.6.22-9.25,4.65-8.69,9s4.14,8.85,8.24,8.83A9.23,9.23,0,0,0,1300,367.82Zm-56,0c-.08,5.74,3,9.23,8,9.2,4.45,0,8.93-4.49,9-8.91,0-4.25-4.27-8.79-8.4-8.89C1247.14,359.06,1244,362.16,1244,367.79Zm-31-4.74a8.3,8.3,0,0,0,8.92-8c.28-4.41-4-8.77-8.84-9-4.2-.2-9.08,4.15-9.06,8.09A9.27,9.27,0,0,0,1213,363.05Zm78.89,48a7.7,7.7,0,0,0,8-8c0-4.71-4.17-9-8.65-9-5.17,0-8.39,3.22-8.35,8.22C1283,408.05,1286.08,411.05,1291.91,411.05Zm0-69c4.92,0,8.07-3.31,8-8.5,0-4.47-4.41-8.56-9.12-8.49-4.94.07-7.87,3.56-7.89,9.39C1283,339.13,1286.4,342.05,1291.92,342.05Zm-40.07,0c4.6,0,9-3.82,9.11-7.92a9.21,9.21,0,0,0-8.62-9.08c-5.06-.1-8.27,3.07-8.37,8.26S1247,342,1251.85,342.05ZM1371,503c1.79,1.28,3.07,1.28,4.86,0C1374.1,501.75,1372.82,501.75,1371,503Zm62.84,47.13c0-.67,0-1.41-.75-1.58-.93-.23-1.08.64-1,1.23s.33,1.42.72,1.55C1433.71,551.67,1433.71,550.75,1433.87,550.16Z"/><path class="cls-3" d="M1117.4,1145.1c-6.91-1-13.48,1.31-20.16,2.24-13.36,1.85-26.63,4.23-40,6.35-25,4-44.08-10.76-48.18-36.81q-14.82-94.22-29.85-188.39c-5.51-34.86-10.8-69.74-16.52-104.56-1.37-8.32-4.21-16.39-4.76-24.89.26-1.39.53-2.39,2.11-.85,2.11,2.08,4.44,3.94,6.58,6,7.58,7.28,16.85,9.47,26.93,8.61,5.53-.47,10.88-2.95,16.59-1,1.19.41,1.67-.75,1.82-1.83,7.32-1.35,14.87-1.48,22-4a509.4,509.4,0,0,0,52-8.19c5,.34,9.88-1,14.75-1.87,9.59-1.71,19.4-2.23,28.78-5.14.28.16.59.5.84.46,12.57-1.9,25.2-3.5,37.67-6,4.49-.88,9.21-.51,13.5-2.42l20.35-2.93,20.33-3.22-.14.07a2,2,0,0,0,2.48,1.1c.17,0,.29-.36.44-.55l-1.34-.56c1.27-1,2.85-.55,4.26-.9,6.65-1.64,13.71-1.16,20.16-3.86a43.4,43.4,0,0,0,5.48-.16c9.85-1.43,19.69-2.86,29.5-4.48,8.15-1.35,16.27-2.95,24.39-4.43l8.6-1.21a17.21,17.21,0,0,0,2.49,0q24.69-4.05,49.38-8.15l18.7-2.76c13.18-2.22,26.36-4.42,39.54-6.68,9.31-1.59,18.71,5,19.64,14.57.52,5.45,1.69,10.78,2.45,16.16,3,21.73,6.91,43.34,10.58,65,.71,4.18-.33,6.32-4.85,7.25-5.35,1.09-10.83.26-16.11,1.87a63.87,63.87,0,0,1-11.18,2.16c-13.45,1.54-23.23,8.51-29.24,20.83-5.69,11.65-4.47,23,2,33.54,6.32,10.22,15.57,16.65,28.19,16.41,4.22-.08,8.22,1.09,12.36,1.24a12,12,0,0,1-.91,1.7,29.88,29.88,0,0,1-9.95,8.67c-1.68.88-3.29,2.44-3.1,4.73.21,2.49,2.45,1.74,3.87,2.07a91.37,91.37,0,0,0,20.3,2.41c1.36,0,2.65,0,3.65,1.11-1.41,3.2-.43,6.57-.66,9.85-.06.86.17,1.89,1.16,1.88,1.3,0,1.43-1.21,1.4-2.2-.1-3.16-.27-6.31-.41-9.46,3.55.54,6.42-.83,9.05-3.09s5.63-4.59,8.44-6.87c-.63,3.66,1.71,6.68,2.2,10.15,1.68,11.93,3.81,23.79,5.68,35.69,1.48,9.46,2.31,19.06,4.37,28.38,2,8.88,1.79,18.11,4.83,26.76.86,10.6,3,21,4.69,31.48,1.7,10.85-3.71,18.59-14.59,20.33q-26.54,4.24-53.1,8.37c-20.06,3.07-40.12,6.06-60.17,9.22-15.82,2.5-31.6,5.22-47.4,7.83q-36,5.68-72,11.37c-17.24,2.76-34.47,5.64-51.71,8.47a32,32,0,0,0-4.49.14c-21.4,3.68-42.83,7.17-64.32,10.29C1123.68,1142.88,1120.22,1143.06,1117.4,1145.1Zm-99.76-313.37c2.63-.9,6.17,0,8.35-2.93a1.13,1.13,0,0,0-.44-1.69c-2.9-1.74-5.83-.25-8.7.16-1.48.21-3.71.64-3.26,2.86C1013.94,831.83,1015.88,831.67,1017.64,831.73Zm289.73-45.87c1.73-.42,4.15-.93,6.51-1.64.9-.27,1.9-.93,1.64-2.13a2,2,0,0,0-2.27-1.55,53.2,53.2,0,0,0-7.34,1c-1.36.29-3.31.78-3,2.69S1305.21,785.68,1307.37,785.86Zm-62.27,315.32c-1.84.43-4.26.91-6.63,1.58a2,2,0,0,0-1.67,2.15c.16,1.21,1.31,1.42,2.23,1.61,2.51.49,4.91-.42,7.31-.91,1.37-.29,3.29-.67,3-2.62S1247.18,1101.3,1245.1,1101.18Zm-157.92,25.06c-1.85.4-4.13.77-6.33,1.41-1.08.31-2.26,1-1.95,2.46s1.63,1.61,2.77,1.51a50.61,50.61,0,0,0,6.83-1c1.38-.31,3.23-.9,2.84-2.75S1089.06,1126.39,1087.18,1126.24Zm316-50.08c-1.92.4-4.2.76-6.41,1.38-1.07.3-2.29,1-2.1,2.38s1.58,1.7,2.68,1.63a50.64,50.64,0,0,0,6.84-.92c1.43-.3,3.22-.89,3-2.71S1405,1076.36,1403.18,1076.16Zm68.55-62.06c-.85-2.61-.18-5.86-2.62-8.12a1.18,1.18,0,0,0-1.77,0c-2.27,2.77-.21,5.69-.2,8.55a1.56,1.56,0,0,0,.08.48c.43,1.44.89,3.32,2.57,3.19C1472,1018,1471.58,1015.86,1471.73,1014.1Zm-336.67,109.21c2.93-.74,6.35,0,8.79-2.54a1.28,1.28,0,0,0-.4-2.1c-3.09-1.45-6.15-.24-9.18.36-1.31.27-2.9.86-2.78,2.37C1131.64,1123.35,1133.55,1123.12,1135.06,1123.31Zm66.3-320.7c2.83-.84,6.23-.24,8.62-2.73a1.24,1.24,0,0,0-.41-2.06c-3.09-1.54-6.11-.19-9.11.42-1.27.26-2.84.94-2.71,2.41C1197.91,802.55,1199.81,802.36,1201.36,802.61Zm-52.46,8.25c2.84-.61,6.14-.27,8.54-2.74a1.13,1.13,0,0,0-.2-1.73c-3-2.13-6-.34-9,.07-1.36.19-3.23.7-3,2.6S1147.29,810.72,1148.9,810.86Zm-105.39,16.78c2.79-.94,6.24-.1,8.6-2.72a1.17,1.17,0,0,0-.07-1.77c-3-2.14-6-.25-9,0a1.61,1.61,0,0,0-.48.12c-1.22.48-2.82.94-2.66,2.48C1040.05,827.66,1042,827.32,1043.51,827.64Zm315.87-50.12c2.61-.93,6.07-.06,8.48-2.63a1.26,1.26,0,0,0-.38-2.08c-3.1-1.55-6.13-.18-9.15.41-1.28.25-2.91.85-2.79,2.33C1355.69,777.47,1357.6,777.28,1359.38,777.52Zm108.19,210.29c-.8-2.64-.18-5.91-2.6-8.2a1.18,1.18,0,0,0-1.78.1c-2.16,2.82-.41,5.74-.17,8.63a1.94,1.94,0,0,0,.09.48c.49,1.4.88,3.25,2.77,2.88S1467.49,989.47,1467.57,987.81Zm-186.35-197.9c2.3-.82,5.78,0,7.94-2.93a1.32,1.32,0,0,0-.2-1.31c-2.94-2.23-6-.52-9-.11-1.49.21-3.72.75-3.21,2.92C1277.14,790.12,1279.13,789.89,1281.22,789.91Zm-224.17,345.88c2.36-.84,5.84,0,8-2.86.21-.28-.15-1.4-.55-1.66-2.84-1.86-5.74-.28-8.57.14-1.5.22-3.69.8-3.23,2.91C1053.06,1136,1055,1135.75,1057.05,1135.79Zm117.84-329c2-.34,4.16-.62,6.27-1.1,1.29-.29,2.78-.81,2.64-2.48s-1.79-1.93-3.06-1.83a40.82,40.82,0,0,0-6.86,1.17c-1.18.3-2.87.8-2.44,2.57C1171.83,806.62,1173.46,806.54,1174.89,806.74Zm-52.44,8.2c2.46-.19,4.94-.33,7.2-1.49.87-.45,1.9-.9,1.75-2.08s-1.31-1.54-2.25-1.49a57.86,57.86,0,0,0-7.32.78c-1.39.25-3.28.71-3,2.6S1121,814.83,1122.45,814.94Zm250.61,270.82c1.83-.39,3.81-.69,5.71-1.25,1.09-.32,2.28-1,2-2.43s-1.61-1.69-2.71-1.65a42.4,42.4,0,0,0-5.92.75c-1.64.3-3.84.82-3.67,2.67C1368.73,1086.3,1371.21,1085.58,1373.06,1085.76Zm-39.71-304.1c2-.38,4.12-.71,6.22-1.22,1.14-.28,2.3-.94,2.17-2.34s-1.49-1.83-2.62-1.76a42,42,0,0,0-6.89,1c-1.34.32-3.35.74-2.84,2.74C1329.84,781.8,1331.71,781.59,1333.35,781.66ZM1346.46,1090c1.73-.4,4.14-.86,6.5-1.51a2,2,0,0,0,1.64-2.15,1.91,1.91,0,0,0-2.2-1.55,55.68,55.68,0,0,0-7.28.79c-1.42.25-3.2.83-2.95,2.67S1344.34,1089.74,1346.46,1090ZM995.78,832.28c1.52-.26,3.5.13,3.79-1.71s-1.54-2.33-3-2.58c-3-.51-5.87-2.53-9-.69a1.81,1.81,0,0,0-.19,1.73C989.54,831.85,992.94,831.46,995.78,832.28Zm301,260.72c-1.49.36-3.61.79-5.66,1.42-.92.29-1.91.95-1.76,2.13s1.27,1.42,2.24,1.65c2.21.5,4.31-.28,6.39-.76,1.61-.37,4.28-.42,3.75-3C1301.32,1092.43,1299,1093.12,1296.78,1093Zm-187.69,34.56c2.71-1.09,6.34.08,8.53-2.94a1.16,1.16,0,0,0-.5-1.7c-2.93-1.73-5.84-.25-8.74.2-1.46.22-3.28.72-3.07,2.6S1107.48,1127.36,1109.09,1127.56Zm106.12-16.79c1.37-.29,3.5-.65,5.56-1.23,1.08-.31,2.3-.91,2.11-2.37s-1.56-1.76-2.66-1.71a38.19,38.19,0,0,0-6.39.86c-1.56.35-3.7.86-3.23,3C1211,1110.92,1212.94,1110.78,1215.21,1110.77ZM1228,798.37c1.84-.34,3.65-.58,5.41-1,1.41-.37,3.3-.79,3.11-2.63-.2-2-2.2-1.67-3.6-1.61a26.5,26.5,0,0,0-5.4.74c-1.51.39-3.7.71-3.25,2.93C1224.62,798.52,1226.58,798.23,1228,798.37Zm235.37,163.46c-1-2.85.2-6.46-2.91-8.6a1.2,1.2,0,0,0-1.72.51c-1.58,3-.18,5.85.3,8.75.24,1.47.75,3.3,2.59,3S1463.2,963.33,1463.36,961.83ZM1437.07,825.4c.92,2.39,0,5.87,2.68,8.26a1.21,1.21,0,0,0,1.79-.14c2.25-3,0-6,0-9.08a1.18,1.18,0,0,0-.15-.47c-.59-1.17-1.06-2.78-2.68-2.42S1437.22,823.53,1437.07,825.4Zm-367.26-2c2-.31,4-.47,5.9-1,1.41-.36,3.2-1,2.89-2.83-.26-1.61-2-1.58-3.29-1.46a59.7,59.7,0,0,0-6.39,1c-1.32.27-2.88.87-2.69,2.43C1066.46,823.46,1068.35,823.21,1069.81,823.36ZM1433,799.12c.45,2.77.18,5.9,2.47,8.26a1.14,1.14,0,0,0,1.77,0c2.23-3,.44-6.09.08-9.1-.17-1.39-.81-3.29-2.7-3S1433.16,797.54,1433,799.12Zm-166,303.38c2.68-.91,6-.12,8.26-2.63a1.12,1.12,0,0,0,0-1.75c-3-2.19-6.09-.47-9.1,0-1.42.22-3.28.77-2.92,2.68S1265.45,1102.45,1267.05,1102.5Zm157.76-25.07c2.84-1,6.44.13,8.59-2.93a1.11,1.11,0,0,0-.51-1.66c-3.09-1.65-6.15-.27-9.17.29-1.25.24-2.85.9-2.58,2.5C1421.46,1077.52,1423.34,1077.21,1424.81,1077.43ZM1324,1088.92c-2.8.46-6-.09-8.15,2.66a1.12,1.12,0,0,0,.47,1.7c2.74,1.44,5.53.48,8.26,0,1.55-.3,3.86-.53,3.62-2.64S1325.65,1089.1,1324,1088.92Zm110-312c-.22-1.33-.33-2.84-.71-4.28s-.5-3.83-2.66-3.64c-2.36.21-1.63,2.51-1.63,4a19.11,19.11,0,0,0,.51,4.45c.41,1.72.67,4.22,3,3.86C1434.61,781,1433.8,778.61,1434,776.89ZM1188.32,1115c2.54-.7,5.75-.14,8.06-2.53a1.27,1.27,0,0,0-.34-2.11c-2.93-1.52-5.85-.23-8.73.32-1.39.26-3.29.81-3,2.68S1186.59,1114.71,1188.32,1115Zm287.56-74.49c-.36-1.83-.7-4.12-1.3-6.34-.29-1.06-.9-2.31-2.4-2s-1.62,1.72-1.57,2.78a45.31,45.31,0,0,0,.94,6.85c.26,1.26.91,2.85,2.45,2.7C1476,1044.25,1475.68,1042.36,1475.88,1040.46Zm-89.59-267.3c2.79-.64,6.06,0,8-2.85a1.36,1.36,0,0,0-.26-1.29c-2.78-2-5.72-.68-8.57-.22-1.58.26-3.74.71-3.38,2.81S1384.66,773.17,1386.29,773.16Zm29.89-9.28c-1.47.25-3.12.45-4.72.85-1.42.35-3.29.74-3.14,2.57.17,2,2.16,1.68,3.56,1.64a21.92,21.92,0,0,0,4.92-.58c1.66-.43,4.19-.61,3.79-3C1420.24,763.34,1418,764,1416.18,763.88ZM1096.77,819a26.78,26.78,0,0,0,3.92-.52c1.66-.46,4.24-.56,4-2.82-.22-2.55-2.78-1.58-4.43-1.62a14,14,0,0,0-3.92.49c-1.68.46-4.19.68-3.83,3C1092.85,819.59,1095.2,818.86,1096.77,819Zm158.1-25c2.65-.52,5.65-.16,7.67-2.59a1.81,1.81,0,0,0-.18-1.72c-2.68-1.46-5.49-.66-8.2-.12-1.7.33-4.17.74-3.67,3.08C1250.91,794.64,1253.24,793.84,1254.87,794Zm224.78,271.19c-.58-1.79.27-6.72-2.93-6.53-4,.24-.52,5.67-2.89,8.37-1,1.16,1.66,1.77,3.11,1.84C1478.83,1069,1480.33,1068.6,1479.65,1065.21Zm-27.8,7.82c2.77-.47,5.78,0,7.74-2.62a1.13,1.13,0,0,0-.35-1.71c-2.72-1.45-5.47-.52-8.18.07-1.58.35-3.89.61-3.64,2.6C1447.74,1073.89,1450.27,1072.74,1451.85,1073Zm-285.95,40.88c-2.68.57-5.71.09-7.63,2.65a1.79,1.79,0,0,0,.21,1.71c2.67,1.44,5.45.54,8.16.09,1.57-.26,3.81-.69,3.62-2.6C1170,1113.29,1167.56,1114.13,1165.9,1113.91Z"/><path class="cls-4" d="M1631.38,1327.7c-10.28,2.5-20.51,5.28-30.86,7.43-16.67,3.46-33.34,6.86-50.27,8.9-15.9,1.92-31.7,4.65-47.59,6.7-8.53,1.09-17.16,1.37-25.72,2.22-15.29,1.51-30.55,3.44-45.87,4.67-9.07.73-18.14,1.73-27.22,2.2q-27.54,1.42-55,4c-8.57.79-17.23.46-25.86,1-23.18,1.44-46.34,3-69.59,3.37-14.06.21-28.15,1.23-42.24,1.84-24.73,1.06-49.49,1.34-74.22,2.21-10.62.38-21.26.19-31.87.74-24.11,1.25-48.26.27-72.35,1.12-52.11,1.85-104.23.91-156.33.53-21.44-.16-42.94.44-64.35-.88-13.48-.83-27,.23-40.35-1s-26.94-.16-40.38-.88c-19.07-1-38.16-1.35-57.23-2.11-16.24-.64-32.47-1.45-48.73-1.94q-27.57-.81-55.1-3c-10.58-.86-21.18-.89-31.75-1.81-16.48-1.44-33-2.7-49.48-4-13.86-1.07-27.77-1.68-41.59-3.15-17.58-1.88-35.21-3.26-52.74-5.71-17.18-2.41-34.58-3.44-51.65-6.43-19-3.33-38.23-6-56.94-11.18-12.11-3.35-24.44-5.88-35.38-12.63-3.9-2.41-7.54-5.05-7.44-9.76.08-4.32,4-6.82,7.35-8.78,11-6.45,23.18-9.48,35.4-12.56,4.06-1,8.63-.85,12.08-3.91a32.72,32.72,0,0,1,1.78,4.57,97.13,97.13,0,0,0,9.61,24.48c2.16,4,5.31,6.13,10,6.11,20.13-.06,40.27,0,60.4,0,5.74,0,8.57-2.58,10.27-8.19,4.05-13.37,5.62-27.19,8-40.87,1.95-.33,3.88-.81,5.84-1,8.21-.61,16.42-1.5,24.6-2.32,15.09-1.51,30.09-3.91,45.31-3.73q.66,8.14,1.31,16.28c-4.06,9.79-7,19.63-1.18,29.81.07,3.48-.43,7.48,4.57,7.88,10.37.81,20.75,1.9,31.13,1.93,15.41,0,30.77,1.83,46.2,1.16a15.75,15.75,0,0,1,3.92.42c7.25,1.52,9.28-.18,9.09-7.68a5.4,5.4,0,0,0-2.71-4.86c-1.24-2.14-3.4-3.14-5.47-4.06a191.29,191.29,0,0,1-18.92-9.8q-14.34-8.38-28.71-16.72l-1.29-18.6,5.19-1.74c1.07,2.36,3.21,2.14,5.17,2,7.24-.6,14.47-1.46,21.72-1.93,17-1.1,34-2.18,51-3,13.93-.66,27.86-1.52,41.81-1.07.85,1,.8,2.58,2.17,3.2-.52,7.71.93,15.32,1.15,23-.34,1-.68,1.89-1,2.84-3.77,9-5.56,18.1-.05,27.17.07,3.51-.29,7,4.7,7.87,9.52,1.65,19.2,1.35,28.73,1.63,16.43.5,32.85,2,49.31,1.35a22.3,22.3,0,0,1,7.9.63c2.93,1,4.42-.55,4.36-3.58,0-1.5-.1-3-.15-4.49a8.58,8.58,0,0,0-4.92-6.4c-4-3.67-9.4-4.7-13.94-7.38-12.25-7.26-24.59-14.36-36.9-21.52.16-7.38-1.57-14.59-2-21.92,2.87-1.47,7.64-.12,8-5.38,7.79-.18,15.59-.53,23.37-.76,21.41-.64,42.82-1.27,64.22-2.12,22.43-.89,44.92-.77,67.35-.82,79.43-.19,158.86-1.18,238.29.53q38.65.83,77.34,1.27c3.27,8.16,6.51,16.34,9.81,24.49.72,1.79,1.07,4,3.48,4.45,0,4.41.22,8.84,0,13.24-.18,3.32,1.24,6.85-1.05,10-2.42-.7-4.14.9-6,1.94-18.48,10.57-36.14,22.59-55.74,31.16a10.54,10.54,0,0,0-5.08,3.88,8.09,8.09,0,0,0-4,6.47c-.36,9.32-.36,9.25,9,9.34,21.2.2,42.35-1.22,63.52-1.94,12.22-.41,24.44-.79,36.61-2,7.93-.82,8.72-1.68,8.79-9.77,6-10.42,5.32-20.86.15-31.33a7,7,0,0,0-2.13-6l-.07-25c4.91.48,6-1.62,5-6.29-1.28-6.46-1.78-13.07-2.61-19.62,16.45-.67,32.88.42,49.29,1.17,19.52.89,39,2.21,58.55,2.85,6,.19,11.93.65,17.82,1.21,6.14.58,12.31.11,18.36.94,15.09,2.06,30.33,2,45.45,3.72,12.63,1.47,25.36,2.18,38.06,3,3,.18,6.29,1.2,9.1-1,1.47.19,3,.28,4.42.58q70,14.65,139.94,29.44c3.87.82,6.34.75,6.47-3.92,6.49.18,12.73,2,19.12,2.86-2.34,2-1.08,4.17-.31,6.25C1624.2,1308.59,1627.8,1318.14,1631.38,1327.7Z"/><path class="cls-5" d="M684.07,1250.93c-.31,5.26-5.08,3.91-8,5.38a146.83,146.83,0,0,1-37.17.81c-1.37-.62-1.32-2.22-2.17-3.2-7.19-26.66-14.47-53.3-20.28-80.31-9-42-16.76-84.27-17.76-127.44-.12-5.41-1.79-10.42-4.06-15.32q-31.56-68.19-63-136.44c-.59-1.27-1.25-2.51-1.86-3.72,0,7.44-.23,14.7,0,21.93,1.56,41.61,3.28,83.21,4.86,124.82.78,20.62,2.2,41.2.9,61.89-3.13,50-8,99.92-13.35,149.76-.43,4.09-1.7,7-5.23,8.84l-5.19,1.74a92.68,92.68,0,0,1-37.84,1.74c-4.56-1.25-6.49-3.92-6.57-9-.27-18-1-36-1.61-54.06l-1.23-29.63c-1-31.59-2.26-63.18-3.05-94.78-.87-34.71-9.51-68.07-17.11-101.61-9.15-40.42-17.39-81-20.52-122.38v-7.68c2.83,4.63,4.74,8,6.93,11.27,2.53,3.73,6,6.2,10.69,6.4,2.7.12,4.68-1.06,2.56-3.84-8.63-11.25-12.74-25.12-21.36-36.34,0-.92,0-1.85,0-2.77l.09-16.11c3.94-.49,5.1-2.69,5.29-6.64A34.52,34.52,0,0,0,424.89,778c2.29-9.54,3.93-19.25,7.11-28.57,1.21,5.43-2.28,12,1.7,16.25,3.68,3.95,9.43,6,14.27,8.83.57.33,1.07.79,1.66,1.08,25.33,12.49,52.45,17.2,80.35,18.12,14.81.49,29.52-1.27,44.15-3.58,12.27-1.93,24.33-4.5,35.62-9.88.14,1.24.29,2.48.43,3.72,5.84,21.83,12.47,43.44,17.91,65.38,14.18,57.14,26.35,114.75,40,172A207.5,207.5,0,0,1,672,1045c0,1.49-.11,3,0,4.48q4.19,72.09,8.43,144.17C681.5,1212.72,682.83,1231.83,684.07,1250.93Z"/><path class="cls-6" d="M682.87,575.94c-13.56,1.36-27.18,3.16-40.21,6.73-15.33,4.19-26.17,17.35-26.86,34.09-1.14,27.23-2.94,54.44-3.31,81.68-.26,18.76.88,37.56.46,56.34-.07,2.8.34,5.67-.8,8.38,0-10.67-.11-21.33-.12-32,0-2.55,0-5-3.73-3.77-12.24,3.88-24.89,4.21-37.49,3.48s-25.22-3.22-37-8.48c-22-9.79-39.61-25.15-55.07-43.24-14.53-17-28.13-34.77-41.83-52.46-1.75-2.26-3.83-4.27-6.43-7.13l-.77,10.9c-1-2.61-2-5.22-3.06-7.82-1.42-3.53-3-4.15-5.25-.5a147.36,147.36,0,0,0-13.41,27.15c-1.58,4.24-2.91,8.45-2.19,13.08q6.56,42.3,13,84.61c1.71,11.14,3.67,22.26,4.22,33.55-.87-.09-1.83-.54-2.35.64-3.17,0-6.38-.34-9.45.83a148.54,148.54,0,0,0-35.54,3.71c-2.18.48-4.3.85-5.54-1.69-1.42-9.49-2.77-19-4.26-28.48-2.61-16.52-5.31-33-8-49.54-1.61-10.85-2.36-21.91-5-32.5-5.94-23.82-3.48-46.7,4.59-69.54,3-8.4,6.63-16.47,9.71-24.79,4.59-12.4,11.72-23.51,17.83-35.13,5.42-10.3,11.34-20.47,19.1-29.09a82.13,82.13,0,0,1,23.55-18.55c18.94-9.62,39.18-15.11,60-18.83,3.64-.65,4.66.37,5.15,3.67,2.25,15.08,9.22,27.89,19,39.43,2.34,2.77,4.23,3.31,7.55,1.69a57.89,57.89,0,0,0,11.09-6.6c1.8-1.44,3.08-1.64,5.21-.31,11.23,7,11.57,6.95,19.09-4,5.9-8.58,10.52-17.74,11.54-28.31.51-5.31,4.39-3.29,6.75-2.73,10.41,2.48,20.86,4.91,31,8.54,14.55,5.23,29.26,10,43.59,15.78,9,3.61,17.75,2,26.57,1,22.32-2.46,44.59-5.35,66.88-8.07,4.2-.84,7.68-3.06,11-5.68l0,0a4.42,4.42,0,0,0,3.32-1.84c12.94-6.92,25.92-13.76,38.82-20.77,11.59-6.29,23.07-12.79,34.63-19.14,8.75-4.8,17.57-9.46,26.33-14.25,3-1.64,5.88-3.46,8.81-5.2,1.81,1,2.92,2.59,4.11,4.19,6.83,9.28,13.78,18.48,20.54,27.81,2,2.73,5.56,4.35,5.77,8.29-5.41,3.78-10.88,7.49-16.22,11.38C869.24,489,860.7,496,851.5,502c-7.89,5.17-15.55,10.66-23.25,16.08-16.3,11.49-32.93,22.56-48.58,34.88-8.41,6.62-17.5,9.29-27.53,10.91-16.07,2.6-32.1,5.53-48.14,8.32a1.11,1.11,0,0,0-.94.09l-2.13.24C694.9,573.61,688.68,573.72,682.87,575.94Z"/><path class="cls-7" d="M1601.84,1289.9c-.13,4.67-2.6,4.74-6.47,3.92q-69.93-14.86-139.94-29.44c-1.45-.3-3-.39-4.42-.58-2.4-.62-4.78-1.32-7.2-1.84-42.3-9.14-84.7-17.86-126.76-28.11-9.89-2.41-10-2.73-10.16-13.08a261.44,261.44,0,0,1,2.62-36.36c3.11-24.11,6.54-48.17,9.85-72.26,15.8-2.61,31.58-5.33,47.4-7.83,20-3.16,40.11-6.15,60.17-9.22-9.81,23.91-21.55,46.87-33.94,69.52-.86,1.58-1.66,3.19-2.24,4.3,72.94,17.69,142,46.15,212.08,71.85,4.28,1.57,2.69,4.61,3.29,7.22Q1604,1268.95,1601.84,1289.9Z"/><path class="cls-8" d="M1222.18,776.73,1201.85,780l.38-1.94c1.79-.35,1.74-1.73,1.74-3.09V755c0-1.18,0-2.36-1.39-2.9l-.62-1.52c-.26-5.32-1.76-10.39-3.12-15.5-2.21-8.35-6.49-15.83-9.89-23.68L1274.14,698c25.33-3.84,50.69-7.58,75.9-12.21,17.39-2.14,34.65-5.12,51.92-8.11,9.41-1.43,18.85-2.7,28.23-4.34,6.25-1.1,12.73-1,18.72-3.51l4.27,0a1.14,1.14,0,0,0,1.52-.22c3-1.06,6.16-.45,9.25-.57a19.78,19.78,0,0,1,11.14,9.91c.24,1,.56,1.91.72,2.89q7.11,44.61,14.18,89.24,6.23,39.3,12.44,78.62c-3.45,7.41-9.86,12.59-14.41,19.18-3.79,1.18-5,4.92-7.51,7.42-3,3-4,6.14-.77,9.63-1.67.7-3.29,1.9-5,2-11,.9-21.88,2.51-32.36,6.17,3.1-10-.15-18.46-8.57-22.25-7.48-3.38-17.46-.71-21.6,6a18.21,18.21,0,0,0,3.66,22.68c5.48,4.88,11.63,3.74,17.88,3,6.1,5.59,11-3.21,17.1-1.52L1440,923.14c-4.14-.15-8.14-1.32-12.36-1.24-12.62.24-21.87-6.19-28.19-16.41-6.52-10.56-7.74-21.89-2-33.54,6-12.32,15.79-19.29,29.24-20.83a63.87,63.87,0,0,0,11.18-2.16c5.28-1.61,10.76-.78,16.11-1.87,4.52-.93,5.56-3.07,4.85-7.25-3.67-21.64-7.53-43.25-10.58-65-.76-5.38-1.93-10.71-2.45-16.16-.93-9.58-10.33-16.16-19.64-14.57-13.18,2.26-26.36,4.46-39.54,6.68,0-1.62-.89-2.81-1.82-4-22.34-28.51-51.9-40.77-87.46-36.21-27.46,3.52-49,18.18-64.35,41.36C1228,759.5,1223.49,767.49,1222.18,776.73Z"/><path class="cls-9" d="M1490,771.05q-7.08-44.62-14.18-89.24c-.16-1-.48-1.93-.72-2.89,9.58,4.62,18.59,10.25,27.69,15.7,21.5,12.86,42.54,26.44,62.69,41.34,13.47,10,26.45,20.57,37.55,33.23,13.06,14.9,14.21,26.86,4.38,44.58-8.69,15.67-20.22,29.11-32.68,41.82A418.09,418.09,0,0,1,1526,898.06c-1.71-.11-2.56,1.35-3.79,2.12-1,.63-1.71.64-2.33-.58-4.7-9.19-12.89-15.3-20-22.32-3.41-3.37-6.43-7.67-11.82-8.43,4.55-6.59,11-11.77,14.41-19.18q18.15-21,36.29-42c2.4-2.78,1.32-5.21-1.11-7.31a120.14,120.14,0,0,0-16.95-12.08C1510.61,782.23,1500.78,775.79,1490,771.05Z"/><path class="cls-10" d="M1637.47,1184q-25.76,0-51.49,0c-9.17,0-13-3.91-13-13,0-5.33-.13-10.67,0-16,.11-3.06-1-4.07-4-4-11.49.13-23,.07-34.49,0-6.7,0-10.41-3.31-10.45-10q-.2-39.48,0-79c0-6.41,3.57-10,10-10,27.33-.11,54.67-.57,82,.22,10.28.3,20.58.38,30.88.68,6.56.19,9.09,2.5,9.11,8.93,0,7.83.32,15.68-.11,23.49-.26,4.84,1.54,5.87,6,5.72,9.16-.3,18.33-.11,27.49-.08,7.87,0,12,3.78,12.69,11.48,2.11,22.26.89,44.58.7,66.86-.08,9.78-1.3,14.73-15.72,14.65C1670.46,1183.87,1654,1184,1637.47,1184Zm.08-3q27,0,54,0c5.51,0,8.38-2.75,8.38-8.11q.06-35,0-70c0-6-2.89-8.87-8.88-8.91-10.17-.06-20.33.16-30.49-.1-3.92-.1-4.71,1.39-4.66,5,.17,13.82.07,27.65.07,41.48,0,8.34-2.27,10.64-10.53,10.65-21.82,0-43.65.09-65.47-.08-3.93,0-5.31,1-5.07,5.05.32,5.47,0,11,.1,16.48.1,5.67,3,8.54,8.6,8.55Q1610.57,1181,1637.55,1181Z"/><path class="cls-11" d="M398.17,1270.92c-2.37,13.68-3.94,27.5-8,40.87-1.7,5.61-4.53,8.18-10.27,8.19-20.13,0-40.27,0-60.4,0-4.68,0-7.83-2.12-10-6.11a97.13,97.13,0,0,1-9.61-24.48,32.72,32.72,0,0,0-1.78-4.57c-1.11-13.16-4.05-26.24-2.91-39.5.81-9.37.29-18.84,2.49-28.11,1.06-4.48,3.26-6.7,7.87-6.38,5.49.39,10.9-.52,16.33-1.12a6,6,0,0,0,5.71.17l12-.16a10.94,10.94,0,0,0,8.76.09l2.13.06c1.75.42,3.5,1,5.28.07l5.85-.24a5.87,5.87,0,0,0,5.83.24c2.11-.24,4.27,1.89,6.34-.14a7.68,7.68,0,0,0,7.1-.14c2.08,2.1,4.72,1,7.09,1.11,6.74.19,8.18,1.23,9.18,7.72a212,212,0,0,1,2,22.65C399.63,1251.14,398,1261,398.17,1270.92Z"/><path class="cls-12" d="M348.34,1209.86a10.94,10.94,0,0,1-8.76-.09c-2.57-21.47-8-42.59-8.75-64.26a303.22,303.22,0,0,0-4.77-42.11c-.22-1.28.53-4-2.54-2.32-16.73,9.09-32.93,4.79-48.84-2.28a58.36,58.36,0,0,1-21.63-16.56c-6.77-8.29-15.36-9.73-25.19-7.8-3.16.62-6.88,2.43-9.23-1s-.17-6.67,1.7-9.69c3.85-6.25,8-12.23,13.58-17.12,8.64-7.59,18.35-9.08,28.61-3.75,14.94,7.75,30.05,15,46.19,20,2.07.63,4.19,1.08,6.27,1.67,5.29,1.48,5.3,1.49,4.2-4.1-1.65-8.31-2.15-16.84-4.77-25-2.38-7.4-6.78-10-14.55-8.22-8.12,1.88-16.13,3.73-24.63,3-13.17-1-24.35-6.26-34.08-14.91-3.27-2.91-6.66-5.58-10.87-6.91a12.45,12.45,0,0,0-11.31,1.92c-3.78-9.1,3.72-20.39,13.66-24.44,11.34-4.63,22.6-2.85,33.78.27,11.39,3.17,22.28,7.71,33,12.62,13.67,6.24,18.29,18,20.53,31.48,1.91,11.49,4,23,5.92,34.44.37,2.22,1.22,3.23,3.43,3.37a15.7,15.7,0,0,1,3.4.75c7.21,2.06,8.81,4.88,5.45,11.69-2.95,6-2.77,12-2.91,18.39-.78,35.26,7.7,69.38,12.32,104C347.9,1205.21,348.09,1207.54,348.34,1209.86Z"/><path class="cls-12" d="M355.75,1210c-1.78.9-3.53.35-5.28-.07q-.71-31-1.41-61.94c-.8-34.63-3.25-69.16-6.43-103.66q-3.67-39.78-8.32-79.44c-2-17.12-7.18-32.65-17.44-46.52-2.76-3.72-6.89-4.8-10.78-5.38s-5.6,3-6,6.55a79.35,79.35,0,0,1-10,30.6c-.34.57-.6,1.19-1,1.74-2,2.8-3.29,6.65-7.63,6.2-4.12-.43-5.46-4.12-6.72-7.31-4-10-7.9-20.11-11.54-30.28-3.48-9.72-1.09-16.37,8.15-20.63,11.61-5.35,23.46-10.26,35.44-14.72,9.28-3.46,15.93,1.56,15.89,11.51a33.37,33.37,0,0,1-1.62,10.8c-1.31,3.7-1.09,6.56,1.34,9.62,11.54,14.5,15.5,31.66,17.64,49.58,2.24,18.67,4.49,37.34,6.19,56.07a5,5,0,0,0,.68,1.41c2.13-2,2-4.64,2.79-6.81,7.12-19.63,20.5-34.36,36.35-47.21,3.75-3,7.4-6.11,9.93-10.37,2.82-4.75,6.81-6,11.4-3,9.19,6.12,15.39,14.57,17.57,25.62.53,2.73.36,4.35-3.49,3.31-11.11-3-15.18-.8-17.91,10.08-6.58,26.27-22,45.88-44.64,60.08-5.27,3.32-7.15,7-6.94,13.3,1.48,44.44,2.55,88.89,3.75,133.34C355.75,1205,355.73,1207.49,355.75,1210Z"/><path class="cls-8" d="M1489.93,1034.92c-3-8.65-2.86-17.88-4.83-26.76-2.06-9.32-2.89-18.92-4.37-28.38-1.87-11.9-4-23.76-5.68-35.69-.49-3.47-2.83-6.49-2.2-10.15,7.54-7,14.72-14.23,20-23.21a10,10,0,0,1,5.09-4.58c7.65,8.7,7.65,8.7,14.12,4.8.18.7.35,1.41.52,2.11-.06.14-.21.31-.17.4a4.61,4.61,0,0,0,.46.72c2.51,16.42,5,32.84,7.54,49.25,2.46,15.76,5.1,31.49,7.46,47.26,1.79,12-3.19,18.55-15.27,20.58C1505,1032.54,1497.48,1033.71,1489.93,1034.92Z"/><path class="cls-12" d="M367.43,1210a5.87,5.87,0,0,1-5.83-.24c-.21-30.81-1.67-61.61-.65-92.44.4-12.25,5-21.72,15.12-28.73,14.29-9.88,28.84-19.27,45.91-23.55,10.66-2.67,20.88-1.59,29.35,6.45a18.7,18.7,0,0,1,5,7.91c1.94,6,1.76,6.18-4.33,5.76-5.26-.37-9.19,2.29-12.65,5.92-4.69,4.93-8.6,10.58-14.16,14.72-11.7,8.7-24.68,12.77-39.27,11.47-15.83-1.4-19.38,1.68-19.32,17.78C366.73,1160,367.15,1185,367.43,1210Z"/><path class="cls-11" d="M422.74,819.8c8.62,11.23,12.73,25.1,21.36,36.35,2.12,2.78.14,4-2.56,3.84-4.66-.2-8.16-2.67-10.69-6.4-2.19-3.23-4.1-6.64-6.93-11.27V850a2,2,0,0,0-1.78,2c-1.42,11.65-4.05,23.17-3.21,35a20.32,20.32,0,0,1-2,10.14c-.63,1.33-1.22,2.84-3.17,2.66a3,3,0,0,1-2.59-2.7c-.88-3.65-2.36-6.47-6.66-6.65a1.55,1.55,0,0,1-1.15-.88c-2.1-6.64-9.06-8.6-13.22-13.38-3.9-4.51-7.63-8.55-8.64-14.47-2.55-15-5.3-30-1.63-45.33.64-2.68.16-5.63.2-8.46a126.43,126.43,0,0,1,32-4.16A53.23,53.23,0,0,0,422,818.61Z"/><path class="cls-12" d="M380.87,1209.71a7.68,7.68,0,0,1-7.1.14c.42-14.63-.07-29.28,1.17-43.89.41-4.81,1.48-9.19,5.3-12.44a9.81,9.81,0,0,1,8.36-2.38c21.08,3.79,42.46,6.11,62.95,12.77,4.41,1.44,8.71,3.23,13.05,4.86l1.23,29.63c-1.18-2.46-3.35-1.8-5.2-1.4-5.52,1.18-11,2.38-16.48,3.87-17.42,4.77-27.48,1.6-38.57-12.5-5.13-6.52-10-13.27-15.24-19.69-3.18-3.88-6.46-3.06-7.95,1.69a21.79,21.79,0,0,0-.61,4.44C380.69,1186.42,381.05,1198.07,380.87,1209.71Z"/><path class="cls-12" d="M327.62,1209.93a6,6,0,0,1-5.71-.17c-4-13.2-7.85-26.49-13.83-39-4.66-9.71-13.44-16-21.63-22.35-2.3-1.79-6.9-1.74-10.1-1-4.1.92-4.55,4.81-3.76,8.56,2.45,11.71,1,23.17-2.14,34.54-.85,3.14-1.91,6.41-5.42,7.11-3.31.65-5.6-2-7.4-4.29-7-9.09-14-18.15-20.6-27.56-5.85-8.4-4.92-15.29,3-22,9.25-7.84,18.71-15.47,28.48-22.65,9.59-7,17.62-3.6,20.08,8.07.52,2.44,1.32,5,1,7.39-.77,5.52,1.61,8.93,5.92,11.92,15.19,10.52,21.2,26.73,26.42,43.38C323.78,1197.94,325.71,1203.93,327.62,1209.93Z"/><path class="cls-7" d="M1629.91,1363.38c-7.48-1.46-10.75-9.17-6.61-16a79.75,79.75,0,0,1,5.53-7.58c2.78-3.55,4.28-7.38,3.17-11.93.75-.64,1.75-1.13,2.21-1.93,9-15.7,14.59-32.4,14.71-50.67,0-7.6.27-15.2-.94-22.75,6.93.38,13.35,2,18.29,7.34-6.18,28.38-13.1,56.6-18.42,85.17-.41,2.19-1.88,3.44-3.32,4.78C1639.67,1354.38,1634.78,1358.87,1629.91,1363.38Z"/><path class="cls-9" d="M1510.92,533.1c2.34-.06,3.94,1.15,5.57,2.32q11.52,8.33,23.06,16.62c4.76,3.42,5.2,5.16,1.92,9.81-5.74,8.16-11.68,16.17-17.39,24.34-2.75,3.93-5.61,4.63-9.59,1.68-8.14-6-16.45-11.86-24.66-17.81-3.33-2.42-4.28-5.12-1.53-8.86,6.22-8.43,12.18-17,18.23-25.59C1507.66,534,1509.05,533,1510.92,533.1Zm20.21,25.68a7.17,7.17,0,0,0-1.16-1.46q-8-5.91-16-11.75c-1.53-1.11-2.46,0-3.25,1.13q-5.4,7.45-10.74,14.94c-1.08,1.52-1.43,2.91.45,4.22,4.89,3.4,9.72,6.91,14.61,10.33,1.21.85,2.76,1.91,4,.29,4-5.32,7.74-10.76,11.57-16.16A7.86,7.86,0,0,0,1531.13,558.78Z"/><path class="cls-11" d="M1601.84,1289.9q2.13-21,4.28-41.91c2.45,3.33,6.39,1.75,9.56,2.78,4.62,1.49,9.52,2.1,14.3,3.09,8.48,10.15,8.63,22.13,7.52,34.37-.19,2.13-1.6,2.85-3.78,3-4.27.3-8.51,1-12.76,1.53C1614.57,1291.92,1608.33,1290.08,1601.84,1289.9Z"/><path class="cls-10" d="M412.11,803.83a126.43,126.43,0,0,0-32,4.16,5.45,5.45,0,0,0-2.82-.62c-6.67,1-7.61,0-8.25-6.6-.55-5.68-1.77-11.32,1.11-16.74,1.24,2.54,3.36,2.17,5.54,1.69A148.54,148.54,0,0,1,411.19,782a57.82,57.82,0,0,1,7.33,0c3.36.41,5.51-.64,6.37-4a34.52,34.52,0,0,1,3.19,16.26c-.19,4-1.35,6.15-5.29,6.64-1.77.35-3.55.62-5.29,1.06S413,800.64,412.11,803.83Z"/><path class="cls-10" d="M1629.91,1363.38c4.87-4.51,9.76-9,14.62-13.53,1.44-1.34,2.91-2.59,3.32-4.78,5.32-28.57,12.24-56.79,18.42-85.17,7.27.31,8.9,2.19,7.69,9-3.36,18.86-8.27,37.37-12.51,56-1.82,8-3.53,16.12-5.39,24.16-2.23,9.62-9.79,14.77-17.46,19.28C1634.37,1370.82,1631.77,1366.93,1629.91,1363.38Z"/><path class="cls-5" d="M1621,1292.76c4.25-.53,8.49-1.23,12.76-1.53,2.18-.15,3.59-.87,3.78-3,1.11-12.24,1-24.22-7.52-34.37a38.8,38.8,0,0,1,18-1.3c1.21,7.55,1,15.15.94,22.75-.12,18.27-5.71,35-14.71,50.67-.46.8-1.46,1.29-2.21,1.93a6.45,6.45,0,0,1-.62-.21c-3.58-9.56-7.18-19.11-10.73-28.69C1619.88,1296.93,1618.62,1294.73,1621,1292.76Z"/><path class="cls-10" d="M1512,911c-6.47,3.9-6.47,3.9-14.12-4.8-.81-1-1.58-2.07-2.45-3q-7.85-8.62-15.72-17.22c-3.22-3.49-2.21-6.61.77-9.63,2.47-2.5,3.72-6.24,7.51-7.42,5.39.76,8.41,5.06,11.82,8.43,7.11,7,15.3,13.13,20,22.32.62,1.22,1.32,1.21,2.33.58,1.23-.77,2.08-2.23,3.79-2.12-1.39,4.61-7.08,4-9.38,7.87C1515.52,907.7,1513.56,909.27,1512,911Z"/><path class="cls-10" d="M1448.58,377c-4.91.13-9.36-3.82-9.48-8.38a9.13,9.13,0,0,1,8.83-9.52,9.3,9.3,0,0,1,9,9.43C1456.9,372.58,1452.63,376.92,1448.58,377Z"/><path class="cls-10" d="M1417.92,367.71c-.05,5-4.82,9.53-9.73,9.31-4.07-.19-8.25-4.57-8.21-8.59a9.16,9.16,0,0,1,9.64-9.23C1413.54,359.35,1418,363.89,1417.92,367.71Z"/><path class="cls-10" d="M1260,293.07c.85,4.38,2.19,8.7-1.9,12.49-3.94,3.64-7,3.58-12.1-.91-3.32-2.95-3.5-6.81-.6-10.48,2.75-3.49,6.37-4.58,10.62-4.11C1257.71,290.51,1257.82,293.12,1260,293.07Z"/><path class="cls-10" d="M1217,259.06c-5.83.44-11.44.48-13-7,.4-5.77,2.76-8.85,7.83-9.78,4.61-.84,7.68,1.6,9.41,5.51C1223.39,252.71,1221.11,256.32,1217,259.06Z"/><path class="cls-10" d="M1291.47,256.06c5.42,0,8.55,3.18,8.5,8.62-.06,5.21-3.22,8.43-8.26,8.38-5.77-.06-8.78-3.17-8.75-9C1283,258.83,1286,256.05,1291.47,256.06Z"/><path class="cls-10" d="M1370.09,377a9.26,9.26,0,0,1-9.12-8.75c-.06-4.31,4.15-8.9,8.31-9,4-.14,9.42,4.74,9.61,8.59C1379.1,371.88,1374.3,376.9,1370.09,377Z"/><path class="cls-10" d="M1448,411.05c-4.6,0-9.06-4.29-9-8.62s4.42-8.33,8.87-8.38c4.66-.05,9.15,4.25,9.06,8.69C1456.81,408.07,1453.6,411.06,1448,411.05Z"/><path class="cls-10" d="M1339,264.89c0,4.84-3.21,8.1-7.91,8.16-5.81.08-9.19-3.15-9.1-8.7.09-5.15,3.28-8.35,8.28-8.29C1336.06,256.12,1339,259.14,1339,264.89Z"/><path class="cls-10" d="M1409.06,411.06c-5.25,0-8.93-3.09-9.09-7.72a9.22,9.22,0,0,1,9-9.29c4.68,0,9,4.25,9,8.82C1417.9,406.91,1413.44,411,1409.06,411.06Z"/><path class="cls-10" d="M1339,367c-.2,6-3.59,10-8.53,10-4,0-8.39-4.2-8.52-8.15-.18-5.73,3.52-9.36,10-9.84C1335.3,360.83,1338.78,362.5,1339,367Z"/><path class="cls-10" d="M1244,160.4c0-5.25,3.24-8.26,8.83-8.31,3.81,0,8.12,4.43,8.16,8.46,0,4.66-4.55,9.49-9,9.46C1247.85,170,1243.92,165.25,1244,160.4Z"/><path class="cls-10" d="M1212.84,190.08c-4.34,0-8.73-4.16-8.83-8.28-.11-4.53,4.56-8.79,9.57-8.72,4.18.06,8.51,4.58,8.36,8.73C1221.77,186.94,1218.25,190.13,1212.84,190.08Z"/><path class="cls-10" d="M1300,229.77c0,4.56-4.06,9.34-8,9.19-4.75-.18-9.68-4.48-9.13-9.11.57-4.8,3.77-8.77,8.2-8.77C1295.71,221.08,1300,225.28,1300,229.77Z"/><path class="cls-10" d="M1252.25,273.06c-5.21.06-8.24-3.14-8.29-8.76,0-5.06,2.82-8.14,7.67-8.24,5.63-.12,9.24,2.95,9.33,7.93C1261.07,269.76,1258,273,1252.25,273.06Z"/><path class="cls-10" d="M1244,229.84a8.93,8.93,0,0,1,9.22-8.76c3.85.14,7.85,4.6,7.78,8.68-.08,4.82-4.56,9.38-9.09,9.24C1248,238.89,1243.91,234.21,1244,229.84Z"/><path class="cls-10" d="M1369.75,342.06c-5.62-.05-8.82-3.16-8.78-8.53,0-4.62,4.19-8.51,9.08-8.48,5.09,0,8,3.45,7.92,9.23C1377.89,339.22,1374.84,342.1,1369.75,342.06Z"/><path class="cls-10" d="M1339,334.22c-.06,5.06-3.5,7.95-9.3,7.84-4.75-.1-7.73-3.58-7.7-9,0-4.74,3.78-8.12,8.87-8C1336.11,325.19,1339,328.5,1339,334.22Z"/><path class="cls-10" d="M1378,299.86c0,4.31-4.06,8.28-8.28,8.13a9.26,9.26,0,0,1-8.73-9.18c-.07-4.47,4.43-8.78,9.06-8.69S1378,294.41,1378,299.86Z"/><path class="cls-10" d="M1339,299.5c0,4.15-4.33,8.51-8.46,8.53s-8.47-4.34-8.54-8.81c-.08-4.7,4.29-9.28,8.72-9.13S1339,294.71,1339,299.5Z"/><path class="cls-10" d="M1300,299.68c0,4.05-4.48,8.42-8.62,8.35-4.41-.08-8.41-4.58-8.39-9.45,0-4,4.42-8.53,8.19-8.46C1296.06,290.22,1299.91,294.4,1300,299.68Z"/><path class="cls-10" d="M1251.84,187.06c5.69-.06,8.9,2.84,9.11,8.2.17,4.38-4.25,8.78-8.84,8.81-5,0-8.07-2.87-8.15-7.8C1243.87,190.47,1246.74,187.11,1251.84,187.06Z"/><path class="cls-10" d="M1408.76,342.06c-4.74-.25-8.92-4.23-8.79-8.36a9.27,9.27,0,0,1,9.65-8.64c4.32.32,8.59,5,8.29,9S1413,342.28,1408.76,342.06Z"/><path class="cls-10" d="M1487.26,411.06c-5.31,0-8.42-3.31-8.32-8.76.09-4.93,3.28-8.23,8-8.25s9,4.11,9,8.61C1495.92,408,1492.72,411.09,1487.26,411.06Z"/><path class="cls-10" d="M1376,409c-3.49,2.75-7.3,2.81-11.06.9-3.34-1.7-4-4.84-4-8.38,0-3.14,3-4.15,4-6.52,4.48-2.09,8.36-1.25,11.47,2.57S1377.87,405.3,1376,409Z"/><path class="cls-10" d="M1213.19,208.06c4.33.05,8.66,4.16,8.76,8.34.1,4.39-4.45,8.72-9.09,8.65s-9-4.18-8.7-8.48S1208.67,207,1213.19,208.06Z"/><path class="cls-10" d="M1512.84,914.18a4.61,4.61,0,0,1-.46-.72c0-.09.11-.26.17-.4C1512.65,913.44,1512.74,913.81,1512.84,914.18Z"/><path class="cls-1" d="M684.07,1250.93c-1.24-19.1-2.57-38.21-3.71-57.32q-4.29-72.09-8.43-144.17c-.08-1.49,0-3,0-4.48,5.76,1.88,10.06,6.19,15.14,9.2,9.65,5.73,19.1,11.78,28.65,17.66A6.84,6.84,0,0,0,720,1073c0,4.49,0,9,0,13.49,0,6,.44,6.47,6.58,6.48,18,0,36,.2,54-.1,5-.08,6.72,2.11,6.35,6.39a105.3,105.3,0,0,0,0,13.76c.17,3.74,1.68,8.36-.79,11.09-2.18,2.42-6.64.57-10.07.89-2.14.2-4.92.09-4.78,3s3.07,1.87,4.79,1.87c21,.1,42,.07,63,.08.12,1.73,1.09,2.45,2.75,3,12.55,4.14,25,8.53,37.58,12.62,7.51,2.44,15,4.79,22.64,7,14.47,4.14,29,8,43.7,11.27a632.92,632.92,0,0,0,62.38,11.15c17.88,2.19,35.78,4,53.79,5.2,15.14,1,30.24.76,45.34.54,7-.1,14.3.15,21-2.85l26.43,71.16q-38.67-.46-77.34-1.27c-79.43-1.71-158.86-.72-238.29-.53-22.43,0-44.92-.07-67.35.82-21.4.85-42.81,1.48-64.22,2.12C699.66,1250.4,691.86,1250.75,684.07,1250.93ZM714,1167c0,2.32,0,4,1.68,4.64,10.75,4.44,21.46,9,32.32,13.09a4.19,4.19,0,0,0,5.67-5.16c-3.43-13.16-7-26.3-10.75-39.36-1.41-4.84-4.7-5.15-7.93-1.13-4.78,6-9.75,11.76-14.21,17.94C718.3,1160.39,714.47,1163.05,714,1167Z"/><path class="cls-13" d="M429.66,630.47l.77-10.9c2.6,2.86,4.68,4.87,6.43,7.13,13.7,17.69,27.3,35.45,41.83,52.46,15.46,18.09,33.05,33.45,55.07,43.24,11.83,5.26,24.31,7.75,37,8.48s25.25.4,37.49-3.48c3.76-1.19,3.72,1.22,3.73,3.77,0,10.66.08,21.32.12,32l-.15,9.78-2.25,7.34c-11.29,5.38-23.35,8-35.62,9.88-14.63,2.31-29.34,4.07-44.15,3.58-27.9-.92-55-5.63-80.35-18.12-.59-.29-1.09-.75-1.66-1.08-4.84-2.87-10.59-4.88-14.27-8.83-4-4.26-.49-10.82-1.7-16.24,1.45-9.73,1.11-19.55,1-29.31C432.6,690.24,437.28,660.12,429.66,630.47Z"/><path class="cls-14" d="M926.16,375.94c-1.25-14-1.48-27.94,2-41.6a137.94,137.94,0,0,1,8.27-23.73c4.91-10.61,12.87-19,19.4-28.39,1.68-2.43,4.45-4.13,6.79-6.08A118.42,118.42,0,0,1,1015,250.75a102.72,102.72,0,0,1,33.21-1.71,219.74,219.74,0,0,1,25.62,5.05c5.81,1.44,10.93,5.48,16.55,7.92,13,5.62,23,15.32,32.1,25.43a94.76,94.76,0,0,1,15.34,23.62c9.27,20,12.4,40.71,10.54,62.7-1.31,15.41-7.07,29.08-13.52,42.52a55.32,55.32,0,0,1-10.66,14.58c-6.47,6.51-12.1,14-19.12,19.77-5.68,4.69-12.71,7.89-19.45,11.09a179.57,179.57,0,0,1-22.07,8.2,46.81,46.81,0,0,1-12.39,2.09c-15,.45-30.12,1.11-44.57-3.22a117.21,117.21,0,0,1-22.45-9.26c-13.39-7.27-24.17-17.32-34.19-28.45a28.12,28.12,0,0,1-3.33-3.59,198.73,198.73,0,0,1-14-26.18c-2.57-5.61-4.88-11.95.81-17.66A15.1,15.1,0,0,0,938,370.7c-.19-1.53.81-3.57-1.26-4.39-2.25-.9-3.07,1.41-4.44,2.43C929.7,370.65,930.05,375.1,926.16,375.94Zm200.85-15a89.37,89.37,0,0,0-90.14-90.52c-50.3.39-88.78,38.89-89.82,88.46-1.1,51.93,40,91.82,90.31,91.95C1086.33,450.94,1127.51,411.11,1127,360.92Z"/><path class="cls-7" d="M1154.64,1249l-26.43-71.16q-5.4-16.38-10.81-32.77c2.82-2,6.28-2.22,9.45-2.68,21.49-3.12,42.92-6.61,64.32-10.29a32,32,0,0,1,4.49-.14c1.46,8.67,3,17.33,4.34,26q7.24,47,14.38,93.94c.83,6.55,1.33,13.16,2.61,19.62.92,4.67-.14,6.77-5,6.29l-44,.12c-2.41-.5-2.76-2.66-3.48-4.45C1161.15,1265.37,1157.91,1257.19,1154.64,1249Z"/><path class="cls-11" d="M1402,677.68c-17.27,3-34.53,6-51.92,8.11-.49-6.95.45-14-2.13-20.77.63-5.07-.14-10.2.83-15.29.38-2-1.55-2.49-3.39-2.7-15.79-1.77-23.6-9.45-27.7-24.76-5.32-19.83-4.6-39.65-1.78-59.6.46-3.25-1.33-5.73-1.86-8.62,5.51,2.17,11.37,3.86,17,1.76,12.54-4.69,25.84-.24,38.48-3.84,4-1.13,9.59,3,9.32,5.79-.68,7.14,2.7,11.71,8.67,14.87,4.26,2.24,6,5.85,6.31,10.57.2,3.52-.22,7.16,1.21,11.19,1.64-3.42,2.81-6.34,4.38-9,1.94-3.32,4.07-6.92,8.63-6.54s7.42,3.56,9.41,7.38c2.39,4.6,1.83,9-1.58,13a22.57,22.57,0,0,1-8,5.89c-1.62.74-2.72,1.59-2.73,3.65,0,7-1.88,13.73-4.15,20.33-.07,3-5.13,4.2-2.79,8.05,1.78,2.92,2,6.17,1.85,9.48,0,1.46-.19,3.06,1.82,3.49a58.56,58.56,0,0,0,1.35,14.15C1404.49,668.86,1401.38,673.1,1402,677.68Zm-58.09-68.92a3.16,3.16,0,0,0,1.63-.23c1.74-.65,5.18-.25,4.71-2.48-.58-2.74-3.31-.51-5-.19-4.06.77-5.94-.34-5.55-4.81a111.14,111.14,0,0,1,2.58-15.71c.27-1.17.64-2.51-1-2.79-1.2-.22-1.58,1-1.82,2-1.54,6.3-3,12.6-2.71,19.16C1336.9,607.46,1338.92,609,1343.87,608.76Zm29-33.16a7.09,7.09,0,0,0-5-4c-2.17-.61-4.38-.69-6.06,1a1.11,1.11,0,0,0,1,1.91c3.06-.8,5.52-.21,7.6,2.18a1.23,1.23,0,0,0,1.78.08A3.35,3.35,0,0,0,1372.91,575.6Zm-41-3.77c-.21-2.85-6.77-4.14-10-2.09-.82.52-2,1-1.49,2.19s1.53,1,2.46.47a6.13,6.13,0,0,1,6.56.26C1330.48,573.29,1331.67,573.53,1332,571.83Zm34.53,13.77c-.24-1.11-.22-2.68-1.94-2.86-2.23-.23-2.75,1.52-2.94,3.21-.15,1.35.17,2.86,1.83,3C1365.63,589.23,1366,587.43,1366.48,585.6Zm-40.75,1.07a3.1,3.1,0,0,0,2.11-3.48c-.17-1.59-.78-3.14-2.65-3s-2.24,1.8-2.16,3.37A2.89,2.89,0,0,0,1325.73,586.67Z"/><path class="cls-11" d="M598.06,364.43c-.06,8.77.23,17.56-.27,26.3a266.15,266.15,0,0,1-2.9,28.63c-2.18,13-5.69,25.74-16,35.12A20.68,20.68,0,0,1,563.42,460c-4.66-.29-6.37,1.08-6.45,6-.31,18-8.67,31.92-22.92,42.58-2,1.5-3.68,1.85-5.81.22-12.3-9.46-20.72-21.32-23.35-36.9a6.83,6.83,0,0,1,.59-3.81c2.44-6.45,3.64-13.21,4.76-20,1.77-.24,1.7-1.62,1.79-2.9,1.56-7.45,1.13-14.89.18-22.37-.62-5-2.09-8.79-6.69-11.94-8.64-5.89-9.35-15.23-2.55-21.68,5.48-5.18,10.17-4.48,13.38,2.32,1.7,3.62,2.77,7.54,4.35,11.95.72-4,1.58-7.23,1.84-10.53.45-5.94,3.31-9.88,8.71-12.29,3.09-1.38,5.25-3.83,7.16-6.72,4.84-7.34,11.65-10.73,20.56-8.94a74.09,74.09,0,0,0,10.92,1.06A134.2,134.2,0,0,0,598.06,364.43Zm-36.3,52.3c3.18,4.33,8.89,5.11,10,1.84,2.24-6.37.53-12.71-.73-19a89.52,89.52,0,0,0-.65,14.52c.08,3.59-1.34,4.89-4.82,3.72C564.69,417.51,563.75,417.28,561.76,416.73Zm-3.55-31c-6.22-6.79-15.81-5.12-18.89,2.86C545.15,384.46,550.91,383.22,558.21,385.71ZM593,382.53c-2.85-3.9-6.49-3.61-10.21-2.38-2.83.93-3.6,2.06-3.84,5.27A18.6,18.6,0,0,1,593,382.53Zm-6,10.36c-2,.07-2.47,1.53-2.59,3s.17,3.21,2,3.39,2.4-1.44,2.5-3S588.81,393.36,587,392.89Zm-36.23-.6a2.54,2.54,0,0,0-1.91,3c.13,1.72.68,3.48,2.67,3.5,1.54,0,2-1.54,1.92-2.93C553.37,394.17,552.71,392.72,550.81,392.29Z"/><path class="cls-15" d="M1401,629.05c2.27-6.6,4.11-13.3,4.15-20.33,0-2.06,1.11-2.91,2.73-3.65a22.57,22.57,0,0,0,8-5.89c3.41-4,4-8.38,1.58-13-2-3.82-4.85-7-9.41-7.38s-6.69,3.22-8.63,6.54c-1.57,2.69-2.74,5.61-4.38,9-1.43-4-1-7.67-1.21-11.19-.26-4.72-2-8.33-6.31-10.57-6-3.16-9.35-7.73-8.67-14.87.27-2.81-5.36-6.92-9.32-5.79-12.64,3.6-25.94-.85-38.48,3.84-5.63,2.1-11.49.41-17-1.76s-9.51-6.37-13.84-10.14l-4.94-6.07-.22.16.2-.19-3-5.25a.37.37,0,0,0-.23-.55c-.67-1.94-1.34-3.87-2-5.81-.18-1.1-.37-2.21-.56-3.31l.21-7.81c1.82-11.43,9.91-17.33,19.46-21.86.83-.39,2-.14,3-.18a62.7,62.7,0,0,1,24,2.76l11.86,5.28,1.19.73.24.11A7.09,7.09,0,0,0,1353,504h0c2.62,2.56,5.9,1.59,9,1.69l5,.33a22.6,22.6,0,0,0,8,1l14.81,3.05a16.33,16.33,0,0,0,6.19,1.77,62.24,62.24,0,0,1,18.83,8.21l1.16.93,1.13,1,4.79,6.19a18.76,18.76,0,0,1,.06,13.46c-.45,1.32-1.7,2.69.67,3.58,3.27,1.22,4.8,4.28,6.76,6.85l.58,1a2.16,2.16,0,0,0,.92,2c.08.83-.08,1.79,1.08,2,3.11,11.06.72,21.94-1.21,32.81-.31,1.75-2.87,2.88-1.74,5.22a4.81,4.81,0,0,0-2.83,4l-.09.24a3.45,3.45,0,0,0-1.32,2.61l-.74,1.25q-1.48,2.43-3,4.86l0,.09-.68.94a.4.4,0,0,0-.31.55l-.13.06.1-.12c-3.32,5.67-8.25,10.06-12.1,15.31C1405.43,626,1404.61,629.85,1401,629.05Z"/><path class="cls-14" d="M1189,711.36c3.4,7.85,7.68,15.33,9.89,23.68,1.36,5.11,2.86,10.18,3.12,15.5q0,13,0,26c.08.49.15,1,.23,1.46l-.38,1.94-20.35,2.93h-2.77c2.87-1.53,2.87-1.53,3.27-4.21,3-20.17.51-39.23-10.53-56.9-9.16-14.66-21.31-26.07-37.09-32.57-20.12-8.3-40.87-8.91-61.59-1.09a77.46,77.46,0,0,0-27.16,17.13,79.86,79.86,0,0,0-15.61,21c-5.24,10.39-8.5,21-9,32.54-.46,9.82-.13,19.62,3.2,29,2.34,6.51,3.43,13.85,9.82,18.24-7.12,2.48-14.67,2.61-22,4a97.79,97.79,0,0,1-10.28-57.1c.46-3.91.73-7.85,1.09-11.78,2.84-6.13,4-12.86,7-19a132.16,132.16,0,0,1,11-18.59c2.3-3.21,4.1-6.78,7-9.57a119.35,119.35,0,0,1,35.7-23.8c12.37-5.43,25.58-7.26,38.56-7.44a96.61,96.61,0,0,1,48,12.18,100.42,100.42,0,0,1,36.63,33.81A27.93,27.93,0,0,0,1189,711.36Z"/><path class="cls-7" d="M598.06,364.43a134.2,134.2,0,0,1-28.17,1.68A74.09,74.09,0,0,1,559,365.05c-8.91-1.79-15.72,1.6-20.56,8.94-1.91,2.89-4.07,5.34-7.16,6.72-5.4,2.41-8.26,6.35-8.71,12.29-.26,3.3-1.12,6.55-1.84,10.53-1.58-4.41-2.65-8.33-4.35-11.95-3.21-6.8-7.9-7.5-13.38-2.32-6.8,6.45-6.09,15.79,2.55,21.68,4.6,3.15,6.07,7,6.69,11.94.95,7.48,1.38,14.92-.18,22.37l-2-1.19c-9.69-13.61-17.81-28-21.43-44.52-3.45-15.73-3.25-31,6-45.2,3.1-4.75,4.69-10.27,6.18-15.74,1.71-6.31,5.11-11,11.5-13.53a118.92,118.92,0,0,1,73-4.91c13.17,3.23,21.1,11.91,23.89,25.21,1.77,8.46-.62,13.47-8.22,17.32C599.94,363.19,599,363.85,598.06,364.43Z"/><path class="cls-10" d="M839,1130c-21,0-42,0-63-.08-1.72,0-4.63,1.22-4.79-1.87s2.64-2.85,4.78-3c3.43-.32,7.89,1.53,10.07-.89,2.47-2.73,1-7.35.79-11.09a105.3,105.3,0,0,1,0-13.76c.37-4.28-1.32-6.47-6.35-6.39-18,.3-36,.13-54,.1-6.14,0-6.57-.47-6.58-6.48,0-4.5,0-9,0-13.49,0-4.33-.12-8.67.07-13,.13-3-.88-4.24-4-4.07-3.65.2-7.32.06-11,0-1.91,0-4-.14-3.81-2.73.16-2.2,2.11-2.25,3.82-2.25h31.48c15,0,30-.11,45,.07,4.08,0,5.66-1.21,5.55-5.43-.24-8.82.06-17.65-.14-26.47-.09-3.92,1.32-5.24,5.22-5.23q77.7.14,155.39.1c1.61,0,4.09-.94,4.25,2,.14,2.54-2.32,2.07-3.7,2.35-6.42,1.33-12.94.58-19.4.52-3.78,0-4.91,1.16-4.78,4.86q.38,11.23,0,22.48c-.13,3.7,1,4.88,4.78,4.85,18.65-.18,37.31.09,55.95-.2,5.18-.07,6.6,1.66,6.43,6.61-.34,9.65-.09,19.32-.1,29,0,6.49,0,6.51-6.31,6.51-18.48,0-37,.12-55.46-.09-4.17,0-5.45,1.19-5.3,5.34.3,8.15.09,16.32.09,24.48,0,7.26,0,7.27-7.06,7.27Zm16.62-37c-19.66,0-39.32.16-59-.11-4.78-.07-5.94,1.49-5.73,5.94.33,7.32.24,14.66,0,22-.12,3.9,1.27,5.32,5.21,5.24,11.12-.21,22.25-.66,33.36-.87,28.48-.53,57-.25,85.46-.1,3.89,0,5.29-1,5.11-5-.31-7.15-.33-14.34,0-21.48.2-4.3-.92-5.75-5.48-5.69C895,1093.1,875.29,1093,855.63,1093Zm.43-74c-20.15,0-40.29,0-60.43-.06-3.3,0-4.8.73-4.69,4.41.25,7.81.21,15.64,0,23.46-.09,3.32,1.11,4.26,4.32,4.25q60.18-.12,120.36,0c3.64,0,4.51-1.33,4.42-4.67-.19-7.49-.28-15,0-22.47.17-4-1.22-5.06-5.1-5C895.34,1019.05,875.7,1019,856.06,1019Zm-67.53,69c20,0,40-.06,60,.07,3.43,0,4.72-.94,4.59-4.51-.23-7-.06-14-.07-21,0-6.58,0-6.59-6.37-6.59H738.23c-3.34,0-6.67.08-10,0-2.35-.06-3.31.93-3.22,3.26a161.13,161.13,0,0,1-1,23.86c-.46,4.1,1.26,5,5.09,5C748.9,1087.88,768.72,1088,788.53,1088Zm133.19,0c19.81,0,39.62-.07,59.43.07,3.58,0,5.08-.77,4.94-4.68-.29-7.65-.19-15.31,0-23,.06-3-.58-4.5-4.08-4.49q-59.93.15-119.86,0c-3.42,0-4.23,1.29-4.16,4.41.16,7.66.24,15.33,0,23-.13,3.82,1.21,4.79,4.87,4.76C882.43,1087.88,902.08,1088,921.72,1088Z"/><path class="cls-8" d="M1002.82,741.07c-.36,3.93-.63,7.87-1.09,11.78A97.79,97.79,0,0,0,1012,810c-.15,1.08-.63,2.24-1.82,1.83-5.71-1.93-11.06.55-16.59,1-10.08.86-19.35-1.33-26.93-8.61-2.14-2.06-4.47-3.92-6.58-6-1.58-1.54-1.85-.54-2.11.85-1.65-6.93-3.25-13.89-3.2-21.07.1-17.06,12.18-31,29.35-33.88C990.36,743,996.59,742.08,1002.82,741.07Z"/><path class="cls-4" d="M654,306.07a4.74,4.74,0,0,1-3.88-1.7,58.28,58.28,0,0,1-16.51-37.82c-.5-8.57.1-17.52,3.62-25.81,5.1-12,12.62-22,23.66-29.15a60.31,60.31,0,0,1,31.1-9.72c17.28-.73,31.59,5,44,16.52,1.18,1.09,2.21,2,2,3.66-8.23-2.4-16.22-5.87-25-6a65.76,65.76,0,0,0-31.9,7.67c-21.16,11.05-30.85,29.09-33,51.9C647.07,286.26,650.25,296.27,654,306.07Z"/><path class="cls-11" d="M926.16,375.94c3.89-.84,3.54-5.29,6.15-7.2,1.37-1,2.19-3.33,4.44-2.43,2.07.82,1.07,2.86,1.26,4.39a15.1,15.1,0,0,1-4.6,12.95c-5.69,5.71-3.38,12.05-.81,17.66a198.73,198.73,0,0,0,14,26.18,28.12,28.12,0,0,0,3.33,3.59c-5.31.95-9.77,4-14.62,6.08a34.18,34.18,0,0,1-9.39,2.77A35.75,35.75,0,0,0,907,448.16c-1-.16-2.08,0-2.7-.93a111.19,111.19,0,0,0-14.93-18.75c-1.38-1.35-1.41-2.88-1.62-4.48.45-.66.76-1.55,1.38-1.93,10.3-6.29,16.49-16.2,22-26.28,3.32-6,8.36-10.14,12.65-15.09C925.08,379.27,926.09,377.87,926.16,375.94Z"/><path class="cls-4" d="M497.16,255a6.63,6.63,0,0,1-4.71-1.35q-12.92-9.24-25.78-18.57c-2.71-2-3.2-4.33-1.52-7.36,3.62-6.58,8.56-12.21,12.77-18.36,1.95-2.85,3.85-5.74,5.91-8.5,2.63-3.51,6.28-4.06,9.65-1.74,8.72,6,17.23,12.32,25.73,18.63,3.09,2.3,3.87,5.06,1.3,8.56-6.46,8.81-12.72,17.78-19.07,26.68A4.39,4.39,0,0,1,497.16,255Z"/><path class="cls-4" d="M863.78,680c-13.22,0-21.14-9-22-22.77-.66-10.71,10.25-22.5,22.19-22,13.58.56,22.2,8.71,22.83,22.63C887.36,669.44,876.17,681.16,863.78,680Z"/><path class="cls-9" d="M1347.91,665c2.58,6.73,1.64,13.82,2.13,20.77-25.21,4.63-50.57,8.37-75.9,12.21,7.24-9.11,15.13-17.78,26.3-21.76,9.1-3.24,18.28-6.57,27.9-8.16C1334.85,667,1341.38,666,1347.91,665Z"/><path class="cls-10" d="M887.78,424c.21,1.6.24,3.13,1.62,4.48a111.19,111.19,0,0,1,14.93,18.75c.62.94,1.74.77,2.7.93-.37,4.17,3.72,5.55,5.46,8.42,2,3.26,1.88,5.35-1.31,7.4a25.23,25.23,0,0,0-3.77,3.17c-3.69,3.56-7.62,6.2-13.06,3.94-.21-3.94-3.8-5.56-5.77-8.29-6.76-9.33-13.71-18.53-20.54-27.81-1.19-1.6-2.3-3.22-4.11-4.19.43-2.35-1.49-5.16,1-7,3.83-2.89,7.75-5.8,12.26-7.44,2.11-.77,3.39,1.7,4.54,3.27C883.29,421.74,884.52,424.22,887.78,424Z"/><path class="cls-10" d="M654,306.07c-3.76-9.8-6.94-19.81-5.91-30.42,2.2-22.81,11.89-40.85,33-51.9a65.76,65.76,0,0,1,31.9-7.67c8.76.1,16.75,3.57,25,6,9.05,5.95,17.89,12.26,23.88,21.48,12.36,19,15.05,39.62,5.45,60.16s-25.9,33.53-49.26,36.47c-20,2.51-36.93-3.67-51.38-17.09C661.53,318.26,657.72,312.14,654,306.07Zm12,12c9.12,11,21,17,34.9,19.15,24.37,3.72,43.72-5.27,58.1-24.55,9.94-13.33,13-28.83,9.82-45.26A56,56,0,0,0,749,234.06c-2.67-3.64-6.49-5.76-10.34-7.88-22.81-12.59-50.25-8.68-69.18,9-13.5,12.63-19.62,28.53-18.41,47C652,295.75,656.27,308.09,666,318Z"/><path class="cls-9" d="M1402,677.68c-.58-4.58,2.53-8.82,1.26-13.46,11.87-.42,23.5,1.72,35.16,3.38,3.51.5,7.45-.46,10.53,2.24-6,2.48-12.47,2.4-18.72,3.5C1420.81,675,1411.37,676.25,1402,677.68Z"/><path class="cls-10" d="M1213.33,380.07c4.38-.07,8.45,4.29,8.61,9.2.14,4.23-4.24,8.74-8.49,8.75-4.84,0-9.36-4-9.45-8.38A9.35,9.35,0,0,1,1213.33,380.07Z"/><path class="cls-10" d="M1222,320.64c-.08,4.06-4.42,8.36-8.46,8.39-4.73,0-9.52-4.59-9.45-9.12a9.24,9.24,0,0,1,9-8.85A9.35,9.35,0,0,1,1222,320.64Z"/><path class="cls-10" d="M1213.42,277.05c5.52.12,8.81,3.53,8.52,8.85-.23,4.27-4.74,8.27-9.2,8.15-4.22-.11-8.91-4.34-8.66-8.12C1204.36,281.64,1208.06,276,1213.42,277.05Z"/><path class="cls-10" d="M1330.41,411.05c-5.15,0-8.48-3.21-8.44-8.11,0-5.73,3.23-8.88,9-8.89a7.7,7.7,0,0,1,8,8C1339,408,1336,411.06,1330.41,411.05Z"/><path class="cls-10" d="M1244,402.31c0-5.39,2.9-8.3,8.14-8.27a8.9,8.9,0,0,1,8.86,8.62c0,5.49-3.39,8.5-9.33,8.39C1246.61,411,1243.92,407.89,1244,402.31Z"/><path class="cls-10" d="M1300,367.82a9.23,9.23,0,0,1-8.89,9.22c-4.1,0-7.66-4.37-8.24-8.83s4.09-8.76,8.69-9C1295.77,359,1299.91,363.45,1300,367.82Z"/><path class="cls-10" d="M1244,367.79c.07-5.63,3.17-8.73,8.59-8.6,4.13.1,8.42,4.64,8.4,8.89,0,4.42-4.5,8.88-9,8.91C1246.94,377,1243.89,373.53,1244,367.79Z"/><path class="cls-10" d="M1213,363.05a9.27,9.27,0,0,1-9-8.91c0-3.94,4.86-8.29,9.06-8.09,4.85.23,9.12,4.59,8.84,9A8.3,8.3,0,0,1,1213,363.05Z"/><path class="cls-10" d="M1291.91,411.05c-5.83,0-8.89-3-9-8.78,0-5,3.18-8.18,8.35-8.22,4.48-.05,8.65,4.27,8.65,9A7.7,7.7,0,0,1,1291.91,411.05Z"/><path class="cls-10" d="M1291.92,342.05c-5.52,0-9-2.92-9-7.6,0-5.83,3-9.32,7.89-9.39,4.71-.07,9.1,4,9.12,8.49C1300,338.74,1296.84,342.05,1291.92,342.05Z"/><path class="cls-10" d="M1251.85,342.05c-4.89,0-8-3.47-7.88-8.74s3.31-8.36,8.37-8.26a9.21,9.21,0,0,1,8.62,9.08C1260.89,338.23,1256.45,342.09,1251.85,342.05Z"/><path class="cls-10" d="M1401,629.05c3.62.8,4.44-3,6.89-4.17-.1.8.07,2-.37,2.33-8.79,5.56-5,14.28-5.59,21.87,0,.33,0,.66-.05,1-2-.43-1.87-2-1.82-3.49.11-3.31-.07-6.56-1.85-9.48C1395.86,633.25,1400.92,632,1401,629.05Z"/><path class="cls-10" d="M1336,495.8a62.7,62.7,0,0,0-24-2.76C1319.76,490,1331,491.34,1336,495.8Z"/><path class="cls-4" d="M682.87,575.94c5.81-2.22,12-2.33,18.06-3.44C695.51,576.83,689.15,576.15,682.87,575.94Z"/><path class="cls-4" d="M752,492c-3.28,2.62-6.76,4.84-11,5.68C744.11,494.74,746.8,491,752,492Z"/><path class="cls-4" d="M609.75,780.28l2.25-7.34c.35,2.62-.25,5.17,1.44,7.85,1.9,3-1.1,3.16-3.26,3.21C610,782.76,609.89,781.52,609.75,780.28Z"/><path class="cls-4" d="M1362,505.71c-3.08-.1-6.36.87-9-1.69C1355.87,505.19,1359.78,500.92,1362,505.71Z"/><path class="cls-4" d="M1396,511.89a16.33,16.33,0,0,1-6.19-1.77C1392.35,508.91,1395.14,506.94,1396,511.89Z"/><path class="cls-10" d="M1295.23,537.84l4.94,6.07C1297.63,542.61,1294.5,541.79,1295.23,537.84Z"/><path class="cls-10" d="M1421.87,528.19l-4.79-6.19C1420.78,522.44,1422.26,524.59,1421.87,528.19Z"/><path class="cls-4" d="M1371,503c1.79-1.28,3.07-1.28,4.86,0C1374.1,504.31,1372.82,504.31,1371,503Z"/><path class="cls-10" d="M1421.05,608.05q1.47-2.43,3-4.86C1423.74,605.25,1424.89,608.17,1421.05,608.05Z"/><path class="cls-4" d="M510,444.06l2,1.19c-.09,1.28,0,2.66-1.79,2.9C508.22,446.89,509.45,445.46,510,444.06Z"/><path class="cls-10" d="M1426.16,599.09a4.81,4.81,0,0,1,2.83-4C1429.12,597.21,1428.47,598.74,1426.16,599.09Z"/><path class="cls-10" d="M1292.17,532.56l3,5.25C1291.79,537.46,1292,535,1292.17,532.56Z"/><path class="cls-4" d="M1433.88,550.16c-.17.59-.17,1.51-1.07,1.2-.39-.13-.68-1-.72-1.55s.1-1.46,1-1.23C1433.85,548.75,1433.9,549.49,1433.88,550.16Z"/><path class="cls-4" d="M1375,507.07a22.6,22.6,0,0,1-8-1C1369.62,506.4,1372.51,505,1375,507.07Z"/><path class="cls-10" d="M1289.92,526.2c.68,1.94,1.35,3.87,2,5.81C1288.59,531,1290.44,528.19,1289.92,526.2Z"/><path class="cls-10" d="M1289.57,515.08l-.21,7.81A11.29,11.29,0,0,1,1289.57,515.08Z"/><path class="cls-4" d="M1353,504a7.09,7.09,0,0,1-3.71-2.09C1350.74,502.18,1352.74,501.51,1353,504Z"/><path class="cls-4" d="M755.34,490.16A4.42,4.42,0,0,1,752,492C752.24,489.79,753.82,490,755.34,490.16Z"/><path class="cls-10" d="M1424.75,601.94a3.45,3.45,0,0,1,1.32-2.61C1426,600.38,1426.05,601.5,1424.75,601.94Z"/><path class="cls-9" d="M1454.7,669.58a1.14,1.14,0,0,1-1.52.22A1,1,0,0,1,1454.7,669.58Z"/><path class="cls-4" d="M1431.94,557.09c-1.16-.25-1-1.21-1.08-2A2,2,0,0,1,1431.94,557.09Z"/><polygon class="cls-10" points="1419.98 609.57 1419.88 609.69 1420.01 609.63 1419.98 609.57"/><path class="cls-10" d="M1420.32,609.08l.68-.94Z"/><path class="cls-4" d="M1349,501.81l-1.19-.73Z"/><path class="cls-4" d="M703.06,572.26a1.11,1.11,0,0,1,.94-.09C703.73,572.64,703.42,572.71,703.06,572.26Z"/><path class="cls-4" d="M1429.94,553.06l-.58-1Z"/><path class="cls-10" d="M1416,521l-1.16-.93Z"/><path class="cls-1" d="M1214.38,1251.94q-7.19-47-14.38-93.94c-1.34-8.68-2.88-17.34-4.34-26,17.24-2.83,34.47-5.71,51.71-8.47q36-5.74,72-11.37c-3.31,24.09-6.74,48.15-9.85,72.26a261.44,261.44,0,0,0-2.62,36.36c.11,10.35.27,10.67,10.16,13.08,42.06,10.25,84.46,19,126.76,28.11,2.42.52,4.8,1.22,7.2,1.84-2.81,2.21-6.1,1.19-9.1,1-12.7-.8-25.43-1.51-38.06-3-15.12-1.75-30.36-1.66-45.45-3.72-6.05-.83-12.22-.36-18.36-.94-5.89-.56-11.87-1-17.82-1.21-19.53-.64-39-2-58.55-2.85C1247.26,1252.36,1230.83,1251.27,1214.38,1251.94Z"/><path class="cls-16" d="M1034,806c-6.39-4.39-7.48-11.73-9.82-18.24-3.33-9.33-3.66-19.13-3.2-29,.54-11.54,3.8-22.15,9-32.54a79.86,79.86,0,0,1,15.61-21,77.46,77.46,0,0,1,27.16-17.13c20.72-7.82,41.47-7.21,61.59,1.09,15.78,6.5,27.93,17.91,37.09,32.57,11,17.67,13.51,36.73,10.53,56.9-.4,2.68-.4,2.68-3.27,4.21h2.77c-4.29,1.91-9,1.54-13.5,2.42-12.47,2.45-25.1,4.05-37.67,6-.25,0-.56-.3-.84-.47,2.84-5.9,4-12.08,1.4-18.24-3.36-8.07-10.82-10.76-18.54-12.4-3.29-.7-4.55-1.88-4.36-5.21.24-4,.07-8,.07-12,0-9.22,0-9.22,9.28-7.32a34.83,34.83,0,0,1,5.79,1.35c3.07,1.22,4.91-.11,6-2.68s-.49-4.72-2.74-5.63a26.77,26.77,0,0,0-9.09-2.37c-5.86-.12-10.72-.51-9.35-8.46.31-1.8-1.28-2.62-2.94-2.62a2.69,2.69,0,0,0-2.94,2.73,21.57,21.57,0,0,0-.06,3.5c.29,3-.69,4.66-4.09,4.66-3.75,0-7,1.94-10.06,3.84-10.34,6.45-13.47,22.23-2.83,30.31a31.41,31.41,0,0,0,12.53,5.68c2.5.55,4.46,1.26,4.43,4.33q-.09,9,0,18c0,2.59-1.2,3-3.49,2.64-4.75-.76-9.53-1.6-13.81-3.71-3.1-1.54-5-.4-6.21,1.85-1.46,2.76-.12,5.17,2.66,6.5,1.62.78,3.62.73,4.88,2.27A509.4,509.4,0,0,1,1034,806Z"/><path class="cls-14" d="M1222.18,776.73c1.31-9.24,5.79-17.23,10.77-24.76,15.32-23.18,36.89-37.84,64.35-41.36,35.56-4.56,65.12,7.7,87.46,36.21.93,1.18,1.85,2.37,1.82,4l-18.7,2.76c-4-2.27-6.41-6.25-10-9-21.47-16.52-45-21.35-71-12.76C1268.24,738,1254.46,750,1245,767c-2.61,4.71-2.45,4.8,3.06,5-6.45,2.7-13.51,2.22-20.16,3.86-1.41.35-3-.12-4.26.9H1222Z"/><path class="cls-16" d="M1248,772c-5.51-.22-5.67-.31-3.06-5,9.48-17,23.26-29,41.91-35.18,26-8.59,49.57-3.76,71,12.76,3.54,2.73,6,6.71,10,9q-24.69,4.08-49.38,8.15a17.21,17.21,0,0,1-2.49,0c.06-1.79.53-3.89-2.09-4.2-2-.24-3.75.52-3.69,2.86s-2.21,1.35-2.82,2.55c-8.12,1.48-16.24,3.08-24.39,4.43-9.81,1.62-19.65,3.05-29.5,4.48A43.4,43.4,0,0,1,1248,772Z"/><path class="cls-11" d="M1479.74,885.9q7.86,8.61,15.72,17.22c.87,1,1.64,2,2.45,3a10,10,0,0,0-5.09,4.58c-5.25,9-12.43,16.23-20,23.21-2.81,2.28-5.69,4.5-8.44,6.87s-5.5,3.63-9.05,3.09l-1.49-.07c-1-1.08-2.29-1.1-3.65-1.11a91.37,91.37,0,0,1-20.3-2.41c-1.42-.33-3.66.42-3.87-2.07-.19-2.29,1.42-3.85,3.1-4.73a29.88,29.88,0,0,0,9.95-8.67,12,12,0,0,0,.91-1.7l10.84-21.09c-6.09-1.69-11,7.11-17.1,1.52-.16-1.42-.65-2.68,1.17-3.78a83,83,0,0,0,7.46-5.69c10.48-3.66,21.34-5.27,32.36-6.17C1476.45,887.8,1478.07,886.6,1479.74,885.9Z"/><path class="cls-2" d="M1086,797.8c-1.26-1.54-3.26-1.49-4.88-2.27-2.78-1.33-4.12-3.74-2.66-6.5,1.18-2.25,3.11-3.39,6.21-1.85,4.28,2.11,9.06,3,13.81,3.71,2.29.37,3.51,0,3.49-2.64q-.08-9,0-18c0-3.07-1.93-3.78-4.43-4.33a31.41,31.41,0,0,1-12.53-5.68c-10.64-8.08-7.51-23.86,2.83-30.31,3.06-1.9,6.31-3.84,10.06-3.84,3.4,0,4.38-1.61,4.09-4.66a21.57,21.57,0,0,1,.06-3.5,2.69,2.69,0,0,1,2.94-2.73c1.66,0,3.25.82,2.94,2.62-1.37,7.95,3.49,8.34,9.35,8.46a26.77,26.77,0,0,1,9.09,2.37c2.25.91,3.84,3,2.74,5.63s-2.89,3.9-6,2.68a34.83,34.83,0,0,0-5.79-1.35c-9.27-1.9-9.27-1.9-9.28,7.32,0,4,.17,8-.07,12-.19,3.33,1.07,4.51,4.36,5.21,7.72,1.64,15.18,4.33,18.54,12.4,2.57,6.16,1.44,12.34-1.4,18.24-9.38,2.92-19.19,3.44-28.78,5.15C1095.84,796.8,1091,798.14,1086,797.8Zm22.11-18c0,2.83,0,5.65,0,8.47,0,1.71.37,3.1,2.52,2.62,3.53-.78,7.16-1.29,9.77-4.29,3.14-3.6,2.91-7.55,1.24-11.55-.82-1.95-11-6.62-12.26-5.51-2.73,2.35-.74,5.83-1.26,8.77A8.24,8.24,0,0,0,1108.07,779.78ZM1102,746.12c0-2.82,0-5.64,0-8.45,0-1.74-.37-2.82-2.53-2.65-4.79.39-10.59,4.94-11.31,9.09-.86,5,1.17,8.2,7.07,11s6.77,2.25,6.76-4C1101.93,749.44,1101.93,747.78,1102,746.12Z"/><path class="cls-10" d="M1017.64,831.73c-1.76-.06-3.7.1-4-1.6-.45-2.22,1.78-2.65,3.26-2.86,2.87-.41,5.8-1.9,8.7-.16a1.13,1.13,0,0,1,.44,1.69C1023.81,831.78,1020.27,830.83,1017.64,831.73Z"/><path class="cls-10" d="M1307.37,785.86c-2.16-.18-4.09.18-4.42-1.68s1.6-2.4,3-2.69a53.2,53.2,0,0,1,7.34-1,2,2,0,0,1,2.27,1.55c.26,1.2-.74,1.86-1.64,2.13C1311.52,784.93,1309.1,785.44,1307.37,785.86Z"/><path class="cls-10" d="M1245.1,1101.18c2.08.12,3.93,0,4.23,1.81s-1.62,2.33-3,2.62c-2.4.49-4.8,1.4-7.31.91-.92-.19-2.07-.4-2.23-1.61a2,2,0,0,1,1.67-2.15C1240.84,1102.09,1243.26,1101.61,1245.1,1101.18Z"/><path class="cls-10" d="M1087.18,1126.24c1.88.15,3.78-.13,4.16,1.65s-1.46,2.44-2.84,2.75a50.61,50.61,0,0,1-6.83,1c-1.14.1-2.46-.14-2.77-1.51s.87-2.15,1.95-2.46C1083.05,1127,1085.33,1126.64,1087.18,1126.24Z"/><path class="cls-10" d="M1403.18,1076.16c1.79.2,3.72-.15,4,1.76s-1.54,2.41-3,2.71a50.64,50.64,0,0,1-6.84.92c-1.1.07-2.48-.18-2.68-1.63s1-2.08,2.1-2.38C1399,1076.92,1401.26,1076.56,1403.18,1076.16Z"/><path class="cls-10" d="M1471.73,1014.1c-.15,1.76.24,3.91-1.94,4.08-1.68.13-2.14-1.75-2.57-3.19a1.56,1.56,0,0,1-.08-.48c0-2.86-2.07-5.78.2-8.55a1.18,1.18,0,0,1,1.77,0C1471.55,1008.24,1470.88,1011.49,1471.73,1014.1Z"/><path class="cls-10" d="M1135.06,1123.31c-1.51-.19-3.42,0-3.57-1.91-.12-1.51,1.47-2.1,2.78-2.37,3-.6,6.09-1.81,9.18-.36a1.28,1.28,0,0,1,.4,2.1C1141.41,1123.27,1138,1122.57,1135.06,1123.31Z"/><path class="cls-10" d="M1201.36,802.61c-1.55-.25-3.45-.06-3.61-2-.13-1.47,1.44-2.15,2.71-2.41,3-.61,6-2,9.11-.42a1.24,1.24,0,0,1,.41,2.06C1207.59,802.37,1204.19,801.77,1201.36,802.61Z"/><path class="cls-10" d="M1148.9,810.86c-1.61-.14-3.48.16-3.69-1.8s1.66-2.41,3-2.6c3-.41,6-2.2,9-.07a1.13,1.13,0,0,1,.2,1.73C1155,810.59,1151.74,810.25,1148.9,810.86Z"/><path class="cls-10" d="M1043.51,827.64c-1.53-.32-3.46,0-3.66-1.93-.16-1.54,1.44-2,2.66-2.48a1.61,1.61,0,0,1,.48-.12c3-.21,6.06-2.1,9,0a1.17,1.17,0,0,1,.07,1.77C1049.75,827.54,1046.3,826.7,1043.51,827.64Z"/><path class="cls-10" d="M1359.38,777.52c-1.78-.24-3.69,0-3.84-2-.12-1.48,1.51-2.08,2.79-2.33,3-.59,6.05-2,9.15-.41a1.26,1.26,0,0,1,.38,2.08C1365.45,777.46,1362,776.59,1359.38,777.52Z"/><path class="cls-10" d="M1467.57,987.81c-.08,1.66.12,3.53-1.69,3.89s-2.28-1.48-2.77-2.88a1.94,1.94,0,0,1-.09-.48c-.24-2.89-2-5.81.17-8.63a1.18,1.18,0,0,1,1.78-.1C1467.39,981.9,1466.77,985.17,1467.57,987.81Z"/><path class="cls-10" d="M1281.22,789.91c-2.09,0-4.08.21-4.47-1.43-.51-2.17,1.72-2.71,3.21-2.92,3-.41,6.06-2.12,9,.11a1.32,1.32,0,0,1,.2,1.31C1287,789.9,1283.52,789.09,1281.22,789.91Z"/><path class="cls-10" d="M1057.05,1135.79c-2,0-4,.18-4.34-1.47-.46-2.11,1.73-2.69,3.23-2.91,2.83-.42,5.73-2,8.57-.14.4.26.76,1.38.55,1.66C1062.89,1135.8,1059.41,1135,1057.05,1135.79Z"/><path class="cls-10" d="M1174.89,806.74c-1.43-.2-3.06-.12-3.45-1.67-.43-1.77,1.26-2.27,2.44-2.57a40.82,40.82,0,0,1,6.86-1.17c1.27-.1,2.91.1,3.06,1.83s-1.35,2.19-2.64,2.48C1179.05,806.12,1176.9,806.4,1174.89,806.74Z"/><path class="cls-10" d="M1122.45,814.94c-1.44-.11-3.35.21-3.63-1.68s1.62-2.35,3-2.6a57.86,57.86,0,0,1,7.32-.78c.94,0,2.09.27,2.25,1.49s-.88,1.63-1.75,2.08C1127.39,814.61,1124.91,814.75,1122.45,814.94Z"/><path class="cls-10" d="M1373.06,1085.76c-1.85-.18-4.33.54-4.56-1.91-.17-1.85,2-2.37,3.67-2.67a42.4,42.4,0,0,1,5.92-.75c1.1,0,2.47.19,2.71,1.65s-.94,2.11-2,2.43C1376.87,1085.07,1374.89,1085.37,1373.06,1085.76Z"/><path class="cls-10" d="M1333.35,781.66c-1.64-.07-3.51.14-4-1.61-.51-2,1.5-2.42,2.84-2.74a42,42,0,0,1,6.89-1c1.13-.07,2.49.31,2.62,1.76s-1,2.06-2.17,2.34C1337.47,781,1335.33,781.28,1333.35,781.66Z"/><path class="cls-10" d="M1346.46,1090c-2.12-.21-4,.18-4.29-1.75s1.53-2.42,2.95-2.67a55.68,55.68,0,0,1,7.28-.79,1.91,1.91,0,0,1,2.2,1.55,2,2,0,0,1-1.64,2.15C1350.6,1089.09,1348.19,1089.55,1346.46,1090Z"/><path class="cls-10" d="M995.78,832.28c-2.84-.82-6.24-.43-8.36-3.25a1.81,1.81,0,0,1,.19-1.73c3.11-1.84,6,.18,9,.69,1.44.25,3.27.74,3,2.58S997.3,832,995.78,832.28Z"/><path class="cls-10" d="M1296.78,1093c2.25.12,4.54-.57,5,1.46.53,2.56-2.14,2.61-3.75,3-2.08.48-4.18,1.26-6.39.76-1-.23-2.09-.45-2.24-1.65s.84-1.84,1.76-2.13C1293.17,1093.79,1295.29,1093.36,1296.78,1093Z"/><path class="cls-10" d="M1109.09,1127.56c-1.61-.2-3.56.1-3.78-1.84s1.61-2.38,3.07-2.6c2.9-.45,5.81-1.93,8.74-.2a1.16,1.16,0,0,1,.5,1.7C1115.43,1127.64,1111.8,1126.47,1109.09,1127.56Z"/><path class="cls-10" d="M1215.21,1110.77c-2.27,0-4.25.15-4.61-1.48-.47-2.11,1.67-2.62,3.23-3a38.19,38.19,0,0,1,6.39-.86c1.1,0,2.47.23,2.66,1.71s-1,2.06-2.11,2.37C1218.71,1110.12,1216.58,1110.48,1215.21,1110.77Z"/><path class="cls-10" d="M1228,798.37c-1.41-.14-3.37.15-3.73-1.61-.45-2.22,1.74-2.54,3.25-2.93a26.5,26.5,0,0,1,5.4-.74c1.4-.06,3.4-.39,3.6,1.61.19,1.84-1.7,2.26-3.11,2.63C1231.64,797.79,1229.83,798,1228,798.37Z"/><path class="cls-10" d="M1463.36,961.83c-.16,1.5.14,3.46-1.74,3.71s-2.35-1.58-2.59-3c-.48-2.9-1.88-5.8-.3-8.75a1.2,1.2,0,0,1,1.72-.51C1463.56,955.37,1462.39,959,1463.36,961.83Z"/><path class="cls-10" d="M1437.07,825.4c.15-1.87.11-3.5,1.64-3.85s2.09,1.25,2.68,2.42a1.18,1.18,0,0,1,.15.47c0,3,2.25,6.08,0,9.08a1.21,1.21,0,0,1-1.79.14C1437.12,831.27,1438,827.79,1437.07,825.4Z"/><path class="cls-10" d="M1069.81,823.36c-1.46-.15-3.35.1-3.58-1.84-.19-1.56,1.37-2.16,2.69-2.43a59.7,59.7,0,0,1,6.39-1c1.29-.12,3-.15,3.29,1.46.31,1.86-1.48,2.47-2.89,2.83C1073.79,822.89,1071.78,823.05,1069.81,823.36Z"/><path class="cls-10" d="M1433,799.12c.14-1.58-.34-3.53,1.62-3.84s2.53,1.6,2.7,3c.36,3,2.15,6.12-.08,9.1a1.14,1.14,0,0,1-1.77,0C1433.2,805,1433.47,801.89,1433,799.12Z"/><path class="cls-10" d="M1267.05,1102.5c-1.6,0-3.46.13-3.8-1.69s1.5-2.46,2.92-2.68c3-.48,6.08-2.2,9.1,0a1.12,1.12,0,0,1,0,1.75C1273.05,1102.38,1269.73,1101.59,1267.05,1102.5Z"/><path class="cls-10" d="M1424.81,1077.43c-1.47-.22-3.35.09-3.67-1.8-.27-1.6,1.33-2.26,2.58-2.5,3-.56,6.08-1.94,9.17-.29a1.11,1.11,0,0,1,.51,1.66C1431.25,1077.56,1427.65,1076.42,1424.81,1077.43Z"/><path class="cls-10" d="M1324,1088.92c1.65.18,4-.54,4.2,1.67s-2.07,2.34-3.62,2.64c-2.73.53-5.52,1.49-8.26,0a1.12,1.12,0,0,1-.47-1.7C1318,1088.83,1321.2,1089.38,1324,1088.92Z"/><path class="cls-10" d="M1434,776.89c-.21,1.72.6,4.1-1.48,4.43-2.34.36-2.6-2.14-3-3.86A19.11,19.11,0,0,1,1429,773c0-1.53-.73-3.83,1.63-4,2.16-.19,2.25,2.1,2.66,3.64S1433.79,775.56,1434,776.89Z"/><path class="cls-10" d="M1188.32,1115c-1.73-.24-3.71.31-4-1.64s1.61-2.42,3-2.68c2.88-.55,5.8-1.84,8.73-.32a1.27,1.27,0,0,1,.34,2.11C1194.07,1114.81,1190.86,1114.25,1188.32,1115Z"/><path class="cls-10" d="M1475.88,1040.46c-.2,1.9.1,3.79-1.88,4-1.54.15-2.19-1.44-2.45-2.7a45.31,45.31,0,0,1-.94-6.85c0-1.06.13-2.48,1.57-2.78s2.11,1,2.4,2C1475.18,1036.34,1475.52,1038.63,1475.88,1040.46Z"/><path class="cls-10" d="M1386.29,773.16c-1.63,0-3.79.58-4.16-1.55s1.8-2.55,3.38-2.81c2.85-.46,5.79-1.75,8.57.22a1.36,1.36,0,0,1,.26,1.29C1392.35,773.18,1389.08,772.52,1386.29,773.16Z"/><path class="cls-10" d="M1416.18,763.88c1.77.09,4.06-.54,4.41,1.49.4,2.38-2.13,2.56-3.79,3a21.92,21.92,0,0,1-4.92.58c-1.4,0-3.39.4-3.56-1.64-.15-1.83,1.72-2.22,3.14-2.57C1413.06,764.33,1414.71,764.13,1416.18,763.88Z"/><path class="cls-10" d="M1096.76,819c-1.56-.17-3.91.56-4.22-1.47-.36-2.32,2.15-2.54,3.83-3a14,14,0,0,1,3.92-.49c1.65,0,4.21-.93,4.43,1.62.21,2.26-2.37,2.36-4,2.82A26.73,26.73,0,0,1,1096.76,819Z"/><path class="cls-10" d="M1254.87,794c-1.63-.18-4,.62-4.38-1.35-.5-2.34,2-2.75,3.67-3.08,2.71-.54,5.52-1.34,8.2.12a1.81,1.81,0,0,1,.18,1.72C1260.52,793.86,1257.52,793.5,1254.87,794Z"/><path class="cls-10" d="M1479.65,1065.21c.68,3.39-.82,3.77-2.71,3.68-1.45-.07-4.12-.68-3.11-1.84,2.37-2.7-1.06-8.13,2.89-8.37C1479.92,1058.49,1479.07,1063.42,1479.65,1065.21Z"/><path class="cls-10" d="M1451.85,1073c-1.58-.29-4.11.86-4.43-1.66-.25-2,2.06-2.25,3.64-2.6,2.71-.59,5.46-1.52,8.18-.07a1.13,1.13,0,0,1,.35,1.71C1457.63,1073,1454.62,1072.56,1451.85,1073Z"/><path class="cls-10" d="M1165.9,1113.91c1.66.22,4.12-.62,4.36,1.85.19,1.91-2,2.34-3.62,2.6-2.71.45-5.49,1.35-8.16-.09a1.79,1.79,0,0,1-.21-1.71C1160.19,1114,1163.22,1114.48,1165.9,1113.91Z"/><path class="cls-4" d="M1307.41,763c.61-1.2,2.88-.35,2.82-2.55s1.7-3.1,3.69-2.86c2.62.31,2.15,2.41,2.09,4.2Z"/><path class="cls-9" d="M1453.87,943.83l1.49.07c.14,3.15.31,6.3.41,9.46,0,1-.1,2.2-1.4,2.2-1,0-1.22-1-1.16-1.88C1453.44,950.4,1452.46,947,1453.87,943.83Z"/><path class="cls-8" d="M1222,776.8h1.58l1.34.56c-.15.19-.27.52-.44.55A2,2,0,0,1,1222,776.8Z"/><path class="cls-1" d="M517,1257.93c3.53-1.89,4.8-4.75,5.23-8.84,5.33-49.84,10.22-99.72,13.35-149.76,1.3-20.69-.12-41.27-.9-61.89-1.58-41.61-3.3-83.21-4.86-124.82-.27-7.23,0-14.49,0-21.93.61,1.21,1.27,2.45,1.86,3.72q31.5,68.22,63,136.44c2.27,4.9,3.94,9.91,4.06,15.32,1,43.17,8.72,85.4,17.76,127.44,5.81,27,13.09,53.65,20.28,80.31-13.95-.45-27.88.41-41.81,1.07-17,.81-34,1.89-51,3-7.25.47-14.48,1.33-21.72,1.93C520.25,1260.07,518.11,1260.29,517,1257.93Z"/><path class="cls-1" d="M380.87,1209.71c.18-11.64-.18-23.29.91-34.9a21.79,21.79,0,0,1,.61-4.44c1.49-4.75,4.77-5.57,7.95-1.69,5.26,6.42,10.11,13.17,15.24,19.69,11.09,14.1,21.15,17.27,38.57,12.5,5.44-1.49,11-2.69,16.48-3.87,1.85-.4,4-1.06,5.2,1.4.58,18,1.34,36,1.61,54.06.08,5,2,7.7,6.57,9,0,.83-.07,1.67-.1,2.5-15.22-.18-30.22,2.22-45.31,3.73-8.18.82-16.39,1.71-24.6,2.32-2,.15-3.89.63-5.84,1-.2-9.93,1.47-19.78,1-29.73a212,212,0,0,0-2-22.65c-1-6.49-2.44-7.53-9.18-7.72C385.59,1210.76,383,1211.81,380.87,1209.71Z"/><path class="cls-5" d="M1212,1302.83a7,7,0,0,1,2.13,6c-1.89,0-3.3.48-3.15,2.78a8,8,0,0,1-1.25,4.18c-5.16,10.16-14.49,14.48-24.47,18.23-9.8,3.68-20.06,3.11-30.16,3.8-11.41.77-22.85-.32-34.32.86-6.79.69-13.87,1.23-20.72-.57a10.54,10.54,0,0,1,5.08-3.88c19.6-8.57,37.26-20.59,55.74-31.16,1.83-1,3.55-2.64,6-1.94,3.17,3.61,4.47,8.07,5.59,12.57.53,2.12,1.2,3.85,3.79,3.62C1189.65,1316.18,1202.56,1313.77,1212,1302.83Z"/><path class="cls-11" d="M1212,1302.83c-9.45,10.94-22.36,13.35-35.77,14.52-2.59.23-3.26-1.5-3.79-3.62-1.12-4.5-2.42-9-5.59-12.57,2.29-3.1.87-6.63,1.05-10,.24-4.4,0-8.83,0-13.24l44-.12Q1212,1290.35,1212,1302.83Z"/><path class="cls-5" d="M678.11,1278.23c12.31,7.16,24.65,14.26,36.9,21.52,4.54,2.68,9.94,3.71,13.94,7.38-1.18,2.28-3.34,1.71-5.27,1.8-12.1.57-24.14-1-36.22-.91-10,0-19.92-.41-29.16-4.2-7.81-3.2-15.29-7.5-16.23-17.37-.2-2.12-1.52-2.75-3-3.5.35-1,.69-1.89,1-2.84,7.36,7.61,16.92,10.11,26.92,11.58,3.09.46,4.86-.34,5.65-3.82S674.16,1280.22,678.11,1278.23Z"/><path class="cls-5" d="M513.14,1278.27q14.36,8.36,28.71,16.72a191.29,191.29,0,0,0,18.92,9.8c2.07.92,4.23,1.92,5.47,4.06-12.44.83-24.82-1.09-37.24-.86-11,.19-21.83,0-32.45-3.13-9.5-2.76-21.74-10.74-20.52-23.88,7.23,6.71,16.22,9.16,25.63,10.66,3.49.56,5.57-.24,6.35-4.13C508.72,1284,509.61,1280.33,513.14,1278.27Z"/><path class="cls-11" d="M678.11,1278.23c-4,2-4.62,6-5.44,9.64s-2.56,4.28-5.65,3.82c-10-1.47-19.56-4-26.92-11.58-.22-7.67-1.67-15.28-1.15-23a146.83,146.83,0,0,0,37.17-.81C676.54,1263.64,678.27,1270.85,678.11,1278.23Z"/><path class="cls-7" d="M1100.07,1338.14c6.85,1.8,13.93,1.26,20.72.57,11.47-1.18,22.91-.09,34.32-.86,10.1-.69,20.36-.12,30.16-3.8,10-3.75,19.31-8.07,24.47-18.23a8,8,0,0,0,1.25-4.18c-.15-2.3,1.26-2.81,3.15-2.78,5.17,10.47,5.82,20.91-.15,31.33-35.52,2.09-71,4.09-106.61,5.25-3.75.12-7.64,1.06-11.27-.83A8.09,8.09,0,0,1,1100.07,1338.14Z"/><path class="cls-10" d="M1096.11,1344.61c3.63,1.89,7.52,1,11.27.83,35.57-1.16,71.09-3.16,106.61-5.25-.07,8.09-.86,9-8.79,9.77-12.17,1.26-24.39,1.64-36.61,2-21.17.72-42.32,2.14-63.52,1.94C1095.75,1353.86,1095.75,1353.93,1096.11,1344.61Z"/><path class="cls-11" d="M513.14,1278.27c-3.53,2.06-4.42,5.75-5.13,9.24-.78,3.89-2.86,4.69-6.35,4.13-9.41-1.5-18.4-4-25.63-10.66l-.81-.79q-.66-8.14-1.31-16.28c0-.83.07-1.67.1-2.5a92.68,92.68,0,0,0,37.84-1.74Z"/><path class="cls-7" d="M475.22,1280.19l.81.79c-1.22,13.14,11,21.12,20.52,23.88C507.17,1308,518,1308.18,529,1308c12.42-.23,24.8,1.69,37.24.86a5.4,5.4,0,0,1,2.71,4.86c-3.75,1.13-7.59.6-11.37.42q-41.77-2-83.54-4.13C468.27,1299.82,471.16,1290,475.22,1280.19Z"/><path class="cls-7" d="M639.07,1283c1.48.75,2.8,1.38,3,3.5.94,9.87,8.42,14.17,16.23,17.37,9.24,3.79,19.18,4.24,29.16,4.2,12.08-.06,24.12,1.48,36.22.91,1.93-.09,4.09.48,5.27-1.8a8.58,8.58,0,0,1,4.92,6.4c-3,1.39-6.23.79-9.33.65q-42.76-2-85.52-4.06C633.51,1301.05,635.3,1292,639.07,1283Z"/><path class="cls-10" d="M639,1310.12q42.75,2.06,85.52,4.06c3.1.14,6.3.74,9.33-.65,0,1.5.11,3,.15,4.49.06,3-1.43,4.53-4.36,3.58a22.3,22.3,0,0,0-7.9-.63c-16.46.64-32.88-.85-49.31-1.35-9.53-.28-19.21,0-28.73-1.63C638.73,1317.13,639.09,1313.63,639,1310.12Z"/><path class="cls-10" d="M474,1310q41.77,2.09,83.54,4.13c3.78.18,7.62.71,11.37-.42.19,7.5-1.84,9.2-9.09,7.68a15.75,15.75,0,0,0-3.92-.42c-15.43.67-30.79-1.12-46.2-1.16-10.38,0-20.76-1.12-31.13-1.93C473.61,1317.48,474.11,1313.48,474,1310Z"/><path class="cls-2" d="M429.66,630.47c7.62,29.65,2.94,59.77,3.32,89.69.13,9.76.47,19.58-1,29.31-3.18,9.31-4.82,19-7.11,28.56-.86,3.35-3,4.4-6.37,4a57.82,57.82,0,0,0-7.33,0c3.07-1.17,6.28-.8,9.45-.83l2.35-.64c-.55-11.29-2.51-22.41-4.22-33.55q-6.47-42.32-13-84.61c-.72-4.63.61-8.84,2.19-13.08a147.36,147.36,0,0,1,13.41-27.15c2.3-3.65,3.83-3,5.25.5C427.64,625.25,428.64,627.86,429.66,630.47Z"/><path class="cls-2" d="M412.11,803.83c.91-3.19,3.55-1.37,5.39-1.84s3.52-.71,5.29-1.06L422.7,817c-.23.53-.45,1.05-.68,1.57A53.23,53.23,0,0,1,412.11,803.83Z"/><path class="cls-10" d="M422,818.61c.23-.52.45-1,.68-1.57,0,.92,0,1.85,0,2.77Z"/><path class="cls-10" d="M423,780.54l-2.35.64C421.16,780,422.12,780.45,423,780.54Z"/><path class="cls-2" d="M1490,771.05c10.79,4.74,20.62,11.18,30.67,17.23a120.14,120.14,0,0,1,16.95,12.08c2.43,2.1,3.51,4.53,1.11,7.31q-18.1,21-36.29,42Q1496.21,810.36,1490,771.05Z"/><path class="cls-10" d="M1442.38,894.1a83,83,0,0,1-7.46,5.69c-1.82,1.1-1.33,2.36-1.17,3.78-6.25.73-12.4,1.87-17.88-3a18.21,18.21,0,0,1-3.66-22.68c4.14-6.74,14.12-9.41,21.6-6C1442.23,875.64,1445.48,884.09,1442.38,894.1ZM1435,898a38.91,38.91,0,0,0,2.65-3,13.45,13.45,0,0,0-.08-15.81,13.18,13.18,0,0,0-15.17-4.37,12.87,12.87,0,0,0-8.55,13.2c.54,9.61,8.94,14.17,19.92,10.81Z"/><path class="cls-3" d="M1202.23,778c-.08-.49-.15-1-.23-1.45,1.76-8.13.73-16.33.58-24.5,1.34.54,1.39,1.72,1.39,2.9v20C1204,776.28,1204,777.66,1202.23,778Z"/><path class="cls-11" d="M1202.58,752.06c.15,8.17,1.18,16.37-.58,24.5q0-13,0-26Z"/><path class="cls-1" d="M1637.55,1181q-27,0-54,0c-5.58,0-8.5-2.88-8.6-8.55-.1-5.49.22-11-.1-16.48-.24-4,1.14-5.08,5.07-5.05,21.82.17,43.65.08,65.47.08,8.26,0,10.53-2.31,10.53-10.65,0-13.83.1-27.66-.07-41.48-.05-3.56.74-5,4.66-5,10.16.26,20.32,0,30.49.1,6,0,8.87,2.9,8.88,8.91q.08,35,0,70c0,5.36-2.87,8.1-8.38,8.11Q1664.55,1181,1637.55,1181Z"/><path class="cls-1" d="M1531.13,558.78a7.86,7.86,0,0,1-.6,1.54c-3.83,5.4-7.62,10.84-11.57,16.16-1.21,1.62-2.76.56-4-.29-4.89-3.42-9.72-6.93-14.61-10.33-1.88-1.31-1.53-2.7-.45-4.22q5.35-7.47,10.74-14.94c.79-1.1,1.72-2.24,3.25-1.13q8.05,5.83,16,11.75A7.17,7.17,0,0,1,1531.13,558.78Z"/><path class="cls-11" d="M714,1167c.49-3.9,4.32-6.56,6.78-10,4.46-6.18,9.43-12,14.21-17.94,3.23-4,6.52-3.71,7.93,1.13,3.79,13.06,7.32,26.2,10.75,39.36a4.19,4.19,0,0,1-5.67,5.16c-10.86-4.12-21.57-8.65-32.32-13.09C714,1170.91,714,1169.27,714,1167Zm28.57,5c-1.7-6.7-3.16-12.78-4.81-18.81-.43-1.56-1.88-1.42-2.71-.39-2.87,3.6-5.64,7.28-8.35,11-1.12,1.54-.55,2.8,1.18,3.52,4.1,1.71,8.21,3.43,12.32,5.11C741.32,1172.89,742.5,1173.24,742.55,1172Z"/><path class="cls-16" d="M1127,360.92c.5,50.19-40.68,90-89.65,89.89-50.29-.13-91.41-40-90.31-91.95,1-49.57,39.52-88.07,89.82-88.46A89.37,89.37,0,0,1,1127,360.92Zm-83-18.16c0-4.45.12-7.95,0-11.44-.12-2.59.8-3.44,3.43-3.46,4.78,0,9.11,1.75,13.62,2.82,3.25.77,5.27-.6,6.33-3.32s-.67-4.39-3-5.46a36.58,36.58,0,0,0-14.81-3.6c-4.66,0-6.11-1.54-5.64-6,.25-2.39,1-5.85-3.18-6-4-.12-3.42,3.32-4,5.74a8.83,8.83,0,0,0,0,2.46c.14,2.46-.92,3.54-3.45,3.77a27.13,27.13,0,0,0-14.37,6.27c-9.56,7.62-11.53,26,1,33.21,4.5,2.6,9.41,3.95,14.12,5.86,2.37,1,2.87,2,2.7,4.39a116.18,116.18,0,0,0-.29,14.45c.45,8.08-1.39,9.57-9.36,6.91-3.12-1-6.19-2.29-9.37-3.1s-6.34-.7-7.36,3c-1,3.52,1.32,5.7,4.47,6.64,2.68.8,5.32,1.76,8,2.58,6.3,1.95,16.51-.38,14.51,11.86,0,.13.15.29.23.43.8,1.44,2.17,1.35,3.51,1.27a2.62,2.62,0,0,0,2.78-2.24c1.43-5.81,4-8.57,9.53-10.61,1.09-.4,2.18-.81,3.26-1.23a21.29,21.29,0,0,0,14-20.3c0-8.88-5.47-16.2-14.51-19.28-3.87-1.32-9.11-1.33-11.37-4C1042.23,351.43,1044.32,346.1,1044,342.76Z"/><path class="cls-5" d="M1343.87,608.76c-4.95.27-7-1.3-7.13-5.08-.28-6.56,1.17-12.86,2.71-19.16.24-1,.62-2.19,1.82-2,1.61.28,1.24,1.62,1,2.79a111.14,111.14,0,0,0-2.58,15.71c-.39,4.47,1.49,5.58,5.55,4.81,1.69-.32,4.42-2.55,5,.19.47,2.23-3,1.83-4.71,2.48A3.16,3.16,0,0,1,1343.87,608.76Z"/><path class="cls-5" d="M1372.91,575.6a3.35,3.35,0,0,1-.59,1.16,1.23,1.23,0,0,1-1.78-.08c-2.08-2.39-4.54-3-7.6-2.18a1.11,1.11,0,0,1-1-1.91c1.68-1.66,3.89-1.58,6.06-1A7.09,7.09,0,0,1,1372.91,575.6Z"/><path class="cls-5" d="M1332,571.83c-.28,1.7-1.47,1.46-2.51.83a6.13,6.13,0,0,0-6.56-.26c-.93.5-2,.78-2.46-.47s.67-1.67,1.49-2.19C1325.18,567.69,1331.74,569,1332,571.83Z"/><path class="cls-5" d="M1366.48,585.6c-.44,1.83-.85,3.63-3,3.39-1.66-.18-2-1.69-1.83-3,.19-1.69.71-3.44,2.94-3.21C1366.26,582.92,1366.24,584.49,1366.48,585.6Z"/><path class="cls-5" d="M1325.73,586.67a2.89,2.89,0,0,1-2.7-3.1c-.08-1.57.3-3.22,2.16-3.37s2.48,1.4,2.65,3A3.1,3.1,0,0,1,1325.73,586.67Z"/><path class="cls-5" d="M561.76,416.73c2,.55,2.93.78,3.84,1.08,3.48,1.17,4.9-.13,4.82-3.72a89.52,89.52,0,0,1,.65-14.52c1.26,6.29,3,12.63.73,19C570.65,421.84,564.94,421.06,561.76,416.73Z"/><path class="cls-5" d="M558.21,385.71c-7.3-2.49-13.06-1.25-18.89,2.86C542.4,380.59,552,378.92,558.21,385.71Z"/><path class="cls-5" d="M593,382.53a18.6,18.6,0,0,0-14,2.89c.24-3.21,1-4.34,3.84-5.27C586.55,378.92,590.19,378.63,593,382.53Z"/><path class="cls-5" d="M587,392.89c1.77.47,2,1.94,1.91,3.44s-.63,3.15-2.5,3-2.13-1.88-2-3.39S585,393,587,392.89Z"/><path class="cls-5" d="M550.81,392.29c1.9.43,2.56,1.88,2.68,3.6.1,1.39-.38,2.94-1.92,2.93-2,0-2.54-1.78-2.67-3.5A2.54,2.54,0,0,1,550.81,392.29Z"/><path class="cls-2" d="M855.63,1093c19.66,0,39.32.15,59-.11,4.56-.06,5.68,1.39,5.48,5.69-.33,7.14-.31,14.33,0,21.48.18,4-1.22,5-5.11,5-28.49-.15-57-.43-85.46.1-11.11.21-22.24.66-33.36.87-3.94.08-5.33-1.34-5.21-5.24.22-7.33.31-14.67,0-22-.21-4.45,1-6,5.73-5.94C816.31,1093.11,836,1093,855.63,1093Z"/><path class="cls-2" d="M856.06,1019c19.64,0,39.28.09,58.93-.08,3.88,0,5.27,1,5.1,5-.31,7.48-.22,15,0,22.47.09,3.34-.78,4.68-4.42,4.67q-60.18-.18-120.36,0c-3.21,0-4.41-.93-4.32-4.25.19-7.82.23-15.65,0-23.46-.11-3.68,1.39-4.43,4.69-4.41C815.77,1019,835.91,1019,856.06,1019Z"/><path class="cls-2" d="M788.53,1088c-19.81,0-39.63-.09-59.45.08-3.83,0-5.55-.89-5.09-5a161.13,161.13,0,0,0,1-23.86c-.09-2.33.87-3.32,3.22-3.26,3.33.09,6.66,0,10,0H846.64c6.37,0,6.37,0,6.37,6.59,0,7-.16,14,.07,21,.13,3.57-1.16,4.53-4.59,4.51C828.5,1087.9,808.52,1088,788.53,1088Z"/><path class="cls-2" d="M921.72,1088c-19.64,0-39.29-.08-58.93.08-3.66,0-5-.94-4.87-4.76.27-7.64.19-15.31,0-23-.07-3.12.74-4.42,4.16-4.41q59.92.13,119.86,0c3.5,0,4.14,1.46,4.08,4.49-.15,7.66-.25,15.32,0,23,.14,3.91-1.36,4.71-4.94,4.68C961.34,1087.89,941.53,1088,921.72,1088Z"/><path class="cls-4" d="M666,318c-9.77-10-14.06-22.29-14.95-35.86-1.21-18.45,4.91-34.35,18.41-47,18.93-17.7,46.37-21.61,69.18-9,3.85,2.12,7.67,4.24,10.34,7.88,1.5,7.23,5.4,13.88,5.59,21.41.15,6.07,2.62,12.58-2.74,17.84-.49-1.58-1-3.14-1.46-4.74A41.26,41.26,0,0,0,672.48,262c-7.05,15.81-3.06,34.64,9.63,46.77,6.25,6,14,8.74,22,11.12-.82,3.26-3.67,2.91-6,3.11-9.45.83-18.37-1.39-27.13-4.73C669.51,317.71,667.76,316,666,318Z"/><path class="cls-2" d="M751.87,273.31c5.36-5.26,2.89-11.77,2.74-17.84-.19-7.53-4.09-14.18-5.59-21.41a56,56,0,0,1,19.84,33.32c3.15,16.43.12,31.93-9.82,45.26-14.38,19.28-33.73,28.27-58.1,24.55C687,335.06,675.16,329,666,318c1.72-2.05,3.47-.33,4.93.23,8.76,3.34,17.68,5.56,27.13,4.73,2.3-.2,5.15.15,6-3.11,10.56.82,20.57-1,29.4-7.05C747.3,303.32,752.55,289.66,751.87,273.31Z"/><path class="cls-16" d="M1108.06,779.78a9.25,9.25,0,0,1,0-1.49c.52-2.94-1.47-6.42,1.26-8.77,1.28-1.11,11.44,3.56,12.26,5.51,1.67,4,1.9,8-1.24,11.55-2.61,3-6.24,3.51-9.77,4.29-2.15.48-2.53-.91-2.52-2.62C1108.08,785.43,1108.07,782.61,1108.06,779.78Z"/><path class="cls-16" d="M1101.94,746.12q0,2.49,0,5c0,6.29-.91,6.84-6.76,4s-7.93-6-7.07-11c.72-4.15,6.52-8.7,11.31-9.09,2.16-.17,2.55.91,2.53,2.65C1101.93,740.48,1102,743.3,1101.94,746.12Z"/><path class="cls-7" d="M1433.72,898.88c-11,3.36-19.38-1.2-19.92-10.81a12.87,12.87,0,0,1,8.55-13.2,13.18,13.18,0,0,1,15.17,4.37,13.45,13.45,0,0,1,.08,15.81,38.91,38.91,0,0,1-2.65,3Z"/><path class="cls-11" d="M1433.72,898.88,1435,898Z"/><path class="cls-1" d="M742.55,1172c0,1.26-1.23.91-2.37.44-4.11-1.68-8.22-3.4-12.32-5.11-1.73-.72-2.3-2-1.18-3.52,2.71-3.73,5.48-7.41,8.35-11,.83-1,2.28-1.17,2.71.39C739.39,1159.2,740.85,1165.28,742.55,1172Z"/><path class="cls-2" d="M1044,342.76c.33,3.34-1.76,8.67.8,11.66,2.26,2.63,7.5,2.64,11.37,4,9,3.08,14.51,10.4,14.51,19.28a21.29,21.29,0,0,1-14,20.3c-1.08.42-2.17.83-3.26,1.23-5.52,2-8.1,4.8-9.53,10.61a2.62,2.62,0,0,1-2.78,2.24c-1.34.08-2.71.17-3.51-1.27-.08-.14-.25-.3-.23-.43,2-12.24-8.21-9.91-14.51-11.86-2.66-.82-5.3-1.78-8-2.58-3.15-.94-5.44-3.12-4.47-6.64,1-3.72,4.3-3.8,7.36-3s6.25,2.06,9.37,3.1c8,2.66,9.81,1.17,9.36-6.91a116.18,116.18,0,0,1,.29-14.45c.17-2.38-.33-3.43-2.7-4.39-4.71-1.91-9.62-3.26-14.12-5.86-12.53-7.26-10.56-25.59-1-33.21a27.13,27.13,0,0,1,14.37-6.27c2.53-.23,3.59-1.31,3.45-3.77a8.83,8.83,0,0,1,0-2.46c.54-2.42,0-5.86,4-5.74,4.21.13,3.43,3.59,3.18,6-.47,4.5,1,6,5.64,6a36.58,36.58,0,0,1,14.81,3.6c2.31,1.07,4,2.77,3,5.46s-3.08,4.09-6.33,3.32c-4.51-1.07-8.84-2.86-13.62-2.82-2.63,0-3.55.87-3.43,3.46C1044.11,334.81,1044,338.31,1044,342.76Zm0,35.45h0a50.91,50.91,0,0,1,0,7c-.66,4.68,1.2,5.81,5.57,4.88,5.31-1.13,9.8-5.13,10.47-9.93.81-5.69-.92-8.37-7.38-11.28-1.81-.82-3.69-1.48-5.53-2.23-2.09-.86-3.13-.32-3.08,2.08C1044,371.88,1044,375,1044,378.21Zm-7-37.54h.08c0-3.14-.06-6.29,0-9.44.06-2.78-1.46-3.71-3.77-2.87-5.44,2-11.27,4.9-11.49,11.37-.24,6.78,2.91,9.18,10,12.14,3.27,1.35,5.76.91,5.18-3.75A61.66,61.66,0,0,1,1037,340.67Z"/><path class="cls-12" d="M751.87,273.31c.68,16.35-4.57,30-18.4,39.53-8.83,6.08-18.84,7.87-29.4,7.05-8-2.38-15.71-5.14-22-11.12-12.69-12.13-16.68-31-9.63-46.77a41.26,41.26,0,0,1,77.93,6.57C750.82,270.17,751.38,271.73,751.87,273.31Zm-18.09-13c-.47-.89-1.06-1.36-2-1a34.68,34.68,0,0,0-4.11,1.74c-8,4.19-13.94,10.61-19.64,17.36-2.23,2.64-4.21,6.8-6.93,7.39-3.44.75-5.4-4.19-8.41-6.15-.27-.18-.46-.51-.74-.67-1.36-.77-2.71-2.68-4.3-1.31-1.39,1.2-.62,3.15.12,4.65,2.87,5.79,7.73,9.88,12.34,14.17,1.36,1.26,2.52.69,3.29-.6,7.49-12.57,18.57-22,28.32-32.61A27.13,27.13,0,0,0,733.78,260.27Z"/><path class="cls-16" d="M1044,378.21c0-3.17,0-6.33,0-9.49,0-2.4,1-2.94,3.08-2.08,1.84.75,3.72,1.41,5.53,2.23,6.46,2.91,8.19,5.59,7.38,11.28-.67,4.8-5.16,8.8-10.47,9.93-4.37.93-6.23-.2-5.57-4.88a50.91,50.91,0,0,0,0-7Z"/><path class="cls-16" d="M1037,340.67a61.66,61.66,0,0,0,0,7.45c.58,4.66-1.91,5.1-5.18,3.75-7.12-3-10.27-5.36-10-12.14.22-6.47,6-9.41,11.49-11.37,2.31-.84,3.83.09,3.77,2.87-.08,3.15,0,6.3,0,9.44Z"/><path class="cls-4" d="M733.78,260.27a27.13,27.13,0,0,1-2,3c-9.75,10.6-20.83,20-28.32,32.61-.77,1.29-1.93,1.86-3.29.6-4.61-4.29-9.47-8.38-12.34-14.17-.74-1.5-1.51-3.45-.12-4.65,1.59-1.37,2.94.54,4.3,1.31.28.16.47.49.74.67,3,2,5,6.9,8.41,6.15,2.72-.59,4.7-4.75,6.93-7.39,5.7-6.75,11.69-13.17,19.64-17.36a34.68,34.68,0,0,1,4.11-1.74C732.72,258.91,733.31,259.38,733.78,260.27Z"/></g></g></svg>